<?xml version="1.0" encoding="UTF-8" standalone="no"?>
<svg
   width="523.41302"
   zoomAndPan="magnify"
   viewBox="0 0 392.55977 229.0367"
   height="305.38199"
   preserveAspectRatio="xMidYMid"
   version="1.0"
   id="svg404"
   sodipodi:docname="zarti_jenni_logo_center.svg"
   xml:space="preserve"
   inkscape:version="1.2.2 (b0a84865, 2022-12-01)"
   inkscape:export-filename="zarti_jenni_logo_center.png"
   inkscape:export-xdpi="375.62689"
   inkscape:export-ydpi="375.62689"
   xmlns:inkscape="http://www.inkscape.org/namespaces/inkscape"
   xmlns:sodipodi="http://sodipodi.sourceforge.net/DTD/sodipodi-0.dtd"
   xmlns="http://www.w3.org/2000/svg"
   xmlns:svg="http://www.w3.org/2000/svg"><sodipodi:namedview
     id="namedview406"
     pagecolor="#ffffff"
     bordercolor="#000000"
     borderopacity="0.25"
     inkscape:showpageshadow="2"
     inkscape:pageopacity="0.0"
     inkscape:pagecheckerboard="0"
     inkscape:deskcolor="#d1d1d1"
     showgrid="true"
     inkscape:zoom="1.380501"
     inkscape:cx="231.7999"
     inkscape:cy="134.73369"
     inkscape:window-width="1440"
     inkscape:window-height="786"
     inkscape:window-x="0"
     inkscape:window-y="25"
     inkscape:window-maximized="1"
     inkscape:current-layer="svg404"><inkscape:grid
       type="xygrid"
       id="grid476"
       originx="0"
       originy="0" /></sodipodi:namedview><defs
     id="defs396"><clipPath
       id="8ab8a59111"><path
         d="M 17.628906,99 H 357.37891 V 213.41016 H 17.628906 Z m 0,0"
         clip-rule="nonzero"
         id="path13520" /></clipPath></defs><g
     id="g523"
     transform="matrix(0.68966455,0,0,0.68966455,79.275046,73.748308)"><g
       fill="#008037"
       fill-opacity="1"
       id="g555"
       transform="matrix(1.7769213,0,0,1.7769213,-292.42024,-224.74637)"><g
         transform="translate(170.22186,165.17297)"
         id="g553"><g
           id="g551"><path
             d="m 13.859375,-5.292969 c -1.90625,1.296875 -3.78125,2.628907 -5.722656,3.851563 -1.007813,0.648437 -2.125,1.152344 -3.203125,1.65625 -0.324219,0.144531 -0.722656,0.109375 -1.046875,0.144531 -0.179688,-1.078125 -0.25,-1.078125 0.039062,-1.65625 0.464844,-1.042969 0.96875,-2.085937 1.546875,-3.058594 0.648438,-1.117187 1.367188,-2.125 2.015625,-3.203125 0.359375,-0.613281 0.683594,-1.261718 0.9375,-1.945312 0.320313,-0.898438 -0.074219,-1.476563 -1.046875,-1.585938 C 6.875,-11.125 6.371094,-11.160156 5.902344,-11.050781 4.320312,-10.621094 2.734375,-10.152344 1.1875,-9.683594 0.972656,-9.613281 0.792969,-9.394531 0.574219,-9.253906 2.628906,-9.46875 4.5,-10.1875 6.660156,-10.261719 6.730469,-9.359375 6.371094,-8.820312 6.046875,-8.242188 5.507812,-7.378906 4.894531,-6.515625 4.320312,-5.652344 3.601562,-4.570312 2.84375,-3.457031 2.160156,-2.339844 1.871094,-1.90625 1.65625,-1.367188 1.476562,-0.863281 1.078125,0.46875 1.511719,1.296875 2.878906,1.546875 3.671875,1.691406 4.5,1.621094 5.328125,1.511719 c 1.1875,-0.179688 2.304687,-0.683594 3.3125,-1.402344 1.4375,-0.972656 2.84375,-2.015625 4.210937,-3.097656 0.792969,-0.574219 1.476563,-1.332031 2.160157,-2.015625 0.144531,-0.179688 0.179687,-0.433594 0.289062,-0.648438 -0.683593,-0.289062 -1.042969,0.109375 -1.441406,0.359375 z m 0,0"
             id="path549" /></g></g></g><g
       fill="#008037"
       fill-opacity="1"
       id="g563"
       transform="matrix(1.7769213,0,0,1.7769213,-292.42024,-224.74637)"><g
         transform="translate(185.77389,165.17297)"
         id="g561"><g
           id="g559"><path
             d="m 11.773438,-6.660156 c 0.214843,-1.152344 0.394531,-2.269532 0.539062,-3.417969 0.07031,-0.613281 -0.253906,-0.902344 -0.863281,-0.9375 -0.46875,-0.03516 -0.863281,0.07031 -1.226563,0.394531 -0.214844,0.21875 -0.464844,0.433594 -0.753906,0.722656 -0.035156,-0.253906 -0.109375,-0.398437 -0.074219,-0.542968 0.109375,-1.257813 -0.25,-1.761719 -1.4375,-1.835938 -0.542969,-0.03516 -1.117187,0.03906 -1.585937,0.253906 -0.683594,0.324219 -1.367188,0.71875 -1.941406,1.222657 -2.199219,2.089843 -3.78125,4.574219 -4.753907,7.417969 -0.179687,0.503906 -0.25,1.078124 -0.289062,1.617187 -0.035157,1.046875 0.398437,1.476563 1.476562,1.511719 0.792969,0.039062 1.546875,-0.25 2.160157,-0.683594 0.828124,-0.609375 1.65625,-1.257812 2.414062,-1.976562 1.042969,-1.046876 2.015625,-2.160157 3.023438,-3.242188 0.285156,-0.324219 0.609374,-0.613281 1.042968,-1.042969 0.035156,0.429688 0.070313,0.609375 0.070313,0.828125 -0.140625,1.1875 -0.285157,2.375 -0.429688,3.5625 C 9,-1.296875 9.109375,0.179688 9.394531,1.621094 9.71875,3.023438 10.222656,3.347656 11.773438,3.277344 11.089844,2.84375 10.871094,2.195312 10.871094,1.476562 c 0.03516,-1.4414058 0.03516,-2.84375 0.179687,-4.285156 0.144531,-1.296875 0.503907,-2.554687 0.722657,-3.851562 z m -10.441407,5.21875 c -0.109375,-1.332032 0.46875,-2.265625 0.9375,-3.238282 1.511719,-2.917968 3.308594,-5.148437 5.003907,-6.191406 0.683593,0.933594 -0.21875,2.085938 0.539062,2.878906 -1.511719,2.628907 -4.390625,5.582032 -6.480469,6.550782 z m 0,0"
             id="path557" /></g></g></g><g
       fill="#008037"
       fill-opacity="1"
       id="g571"
       transform="matrix(1.7769213,0,0,1.7769213,-292.42024,-224.74637)"><g
         transform="translate(199.56191,165.17297)"
         id="g569"><g
           id="g567"><path
             d="m 10.546875,-10.1875 c -0.25,-0.9375 -0.828125,-1.367188 -1.800781,-1.296875 -0.753906,0.07422 -1.367188,0.359375 -1.871094,0.9375 -0.898438,1.078125 -1.800781,2.195313 -2.734375,3.273437 -0.214844,0.289063 -0.46875,0.578126 -0.9375,1.082032 0.144531,-1.980469 1.082031,-3.457032 1.1875,-5.21875 -0.71875,-0.253906 -1.152344,-0.144532 -1.4375,0.359375 -0.21875,0.324219 -0.398437,0.683593 -0.542969,1.007812 -1.113281,2.628907 -2.230468,5.253907 -3.347656,7.882813 -0.179688,0.433594 -0.324219,0.898437 -0.429688,1.367187 -0.179687,0.7578128 0.179688,1.1875 0.972657,1.1875 0.539062,0 1.078125,-0.140625 1.472656,-0.574219 0.46875,-0.433593 0.9375,-0.898437 1.332031,-1.441406 0.828125,-1.042968 1.550782,-2.121094 2.34375,-3.167968 0.96875,-1.296876 1.976563,-2.589844 3.023438,-3.886719 0.214844,-0.289063 0.503906,-0.503907 0.898437,-0.828125 0.179688,0.539062 0.324219,0.9375 0.433594,1.332031 0.105469,0.324219 0.144531,0.648437 0.324219,0.9375 0.105468,0.179687 0.394531,0.359375 0.609375,0.394531 0.109375,0 0.359375,-0.253906 0.433593,-0.433594 0.289063,-0.96875 0.289063,-1.941406 0.07031,-2.914062 z m 0,0"
             id="path565" /></g></g></g><g
       fill="#008037"
       fill-opacity="1"
       id="g579"
       transform="matrix(1.539642,0,0,1.539642,-242.59725,-187.62244)"><g
         transform="translate(212.16194,165.17297)"
         id="g577"><g
           id="g575"><path
             d="m 18.898438,-23.039062 c -1.222657,-0.109376 -2.410157,-0.21875 -3.632813,-0.144532 -2.664063,0.07031 -5.367187,0.25 -8.03125,0.394532 -0.359375,0 -0.71875,-0.07031 -1.148437,-0.105469 0.25,-0.972657 0.464843,-1.835938 0.683593,-2.664063 0.214844,-0.828125 0.71875,-1.585937 0.683594,-2.519531 -0.863281,-0.363281 -1.476563,-0.07422 -1.835937,0.609375 -0.433594,0.828125 -0.792969,1.691406 -1.117188,2.558594 -0.253906,0.753906 -0.46875,1.546875 -0.71875,2.375 -1.046875,0.144531 -2.015625,0.25 -2.988281,0.394531 -1.65625,0.214844 -3.277344,0.433594 -4.898438,0.71875 -0.609375,0.109375 -1.292969,0.144531 -1.726562,0.792969 0.863281,0.46875 0.863281,0.46875 1.367187,0.398437 2.304688,-0.289062 4.574219,-0.578125 6.839844,-0.867187 0.289062,-0.03516 0.613281,0.07422 0.972656,0.109375 -0.109375,0.539062 -0.214844,0.972656 -0.324218,1.367187 -1.332032,5.148438 -2.589844,10.332032 -3.636719,15.515625 -0.789063,3.816407 -1.546875,7.632813 -1.980469,11.519531 -0.035156,0.542969 -0.035156,1.082032 0,1.621094 0.039062,0.253906 0.183594,0.539063 0.648438,0.46875 0.109374,-0.433594 0.253906,-0.863281 0.359374,-1.332031 0.183594,-0.972656 0.363282,-1.945313 0.542969,-2.914063 1.871094,-8.679687 4.355469,-17.210937 6.515625,-25.8125 0.070313,-0.324218 0.25,-0.578124 0.394532,-0.867187 4.644531,-0.429687 9.179687,-0.96875 13.824218,-1.257813 -0.25,-0.144531 -0.539062,-0.359374 -0.792968,-0.359374 z m 0,0"
             id="path573" /></g></g></g><g
       fill="#008037"
       fill-opacity="1"
       id="g587"
       transform="matrix(1.7769213,0,0,1.7769213,-292.42024,-224.74637)"><g
         transform="translate(218.10195,165.17297)"
         id="g585"><g
           id="g583"><path
             d="m 12.203125,-9.394531 c -0.71875,0.285156 -0.898437,0.828125 -1.1875,1.257812 -1.761719,2.339844 -3.851563,4.320313 -6.371094,5.867188 -0.683593,0.433593 -1.367187,0.867187 -2.339843,0.9375 C 2.160156,-1.691406 1.980469,-2.015625 1.945312,-2.375 c 0,-0.433594 0.070313,-0.863281 0.179688,-1.296875 0.46875,-1.511719 0.933594,-3.023437 1.4375,-4.535156 0.144531,-0.503907 0.433594,-1.007813 0.363281,-1.550781 -1.226562,-0.429688 -1.585937,-0.359376 -2.125,0.542968 C 0.792969,-7.453125 0,-5.578125 -0.46875,-3.601562 c -0.035156,0.21875 -0.070312,0.433593 -0.105469,0.648437 -0.21875,1.765625 0.5390628,2.699219 2.339844,2.773437 1.257813,0.070313 2.375,-0.253906 3.453125,-0.898437 2.484375,-1.550781 4.609375,-3.492187 6.191406,-6.015625 0.324219,-0.503906 0.578125,-1.042969 0.792969,-1.617188 0.07422,-0.144531 0,-0.359374 0,-0.683593 z m -7.59375,-3.746094 c 0.179687,-0.144531 0.324219,-0.289063 0.429687,-0.46875 0.253907,-0.539063 0.46875,-1.078125 0.792969,-1.726563 -1.007812,-0.289062 -1.871093,-0.253906 -2.699219,0.214844 -0.648437,0.359375 -0.863281,1.1875 -0.539062,1.691406 0.429688,0.648438 1.402344,0.792969 2.015625,0.289063 z m 0,0"
             id="path581" /></g></g></g><g
       id="g1200"
       transform="translate(-17.893516,-95.263245)"><g
         fill="#008037"
         fill-opacity="1"
         id="g603"
         transform="matrix(1.7769213,0,0,1.7769213,-193.69487,-137.39059)"><g
           transform="translate(245.67801,165.17297)"
           id="g601"><g
             id="g599"><path
               d="m 1.90625,-5.941406 c -0.140625,-1.980469 0.6875,-3.777344 0.253906,-5.578125 -0.648437,-0.253907 -1.082031,-0.03516 -1.296875,0.46875 -0.179687,0.503906 -0.359375,1.042969 -0.46875,1.582031 -0.285156,1.152344 -0.574219,2.339844 -0.71875,3.527344 -0.179687,1.441406 -0.792969,2.484375 -1.980469,3.386718 -3.671874,2.878907 -6.695312,6.335938 -9,10.402344 -0.648437,1.117188 -1.152343,2.339844 -1.621093,3.5625 -0.394531,1.011719 -0.609375,2.125 -0.429688,3.242188 0.179688,1.332031 0.933594,2.050781 2.265625,2.125 0.503906,0.03516 1.011719,-0.07422 1.476563,-0.179688 0.867187,-0.21875 1.621093,-0.6875 2.234375,-1.332031 0.933594,-1.007813 1.871094,-2.019531 2.664062,-3.097656 1.257813,-1.726563 2.195313,-3.671875 3.058594,-5.617188 1.1875,-2.625 2.050781,-5.328125 2.59375,-8.136719 0.25,-1.222656 0.753906,-2.121093 1.761719,-2.804687 1.730469,-1.261719 3.386719,-2.59375 5.363281,-4.070313 -2.554688,-0.144531 -4.136719,1.621094 -6.15625,2.519532 z m -3.8125,6.699218 c -1.046875,3.777344 -2.449219,7.378907 -4.429688,10.761719 -0.683593,1.1875 -1.546874,2.269531 -2.410156,3.347657 -0.507812,0.613281 -1.117187,1.1875 -2.125,1.332031 -0.144531,-0.324219 -0.433594,-0.683594 -0.433594,-1.007813 0,-0.648437 0.03516,-1.332031 0.253907,-1.945312 0.394531,-1.113282 0.828125,-2.265625 1.4375,-3.308594 1.835937,-3.3125 4.105469,-6.335938 6.660156,-9.144531 0.324219,-0.324219 0.683594,-0.613281 1.296875,-1.152344 -0.144531,0.613281 -0.179688,0.863281 -0.25,1.117187 z M 1.261719,-14.21875 c 0.25,0.07031 0.609375,0 0.898437,-0.109375 0.179688,-0.03516 0.289063,-0.289063 0.394532,-0.503906 0.359374,-0.648438 0.722656,-1.332031 1.152343,-2.160157 -1.476562,0.109376 -2.304687,0.71875 -2.734375,1.90625 -0.144531,0.363282 -0.074218,0.722657 0.289063,0.867188 z m 0,0"
               id="path597" /></g></g></g><g
         fill="#008037"
         fill-opacity="1"
         id="g611"
         transform="matrix(1.7769213,0,0,1.7769213,-193.69487,-137.39059)"><g
           transform="translate(251.94202,165.17297)"
           id="g609"><g
             id="g607"><path
               d="M 12.457031,-5.902344 C 12.203125,-5.6875 11.914062,-5.507812 11.699219,-5.21875 10.222656,-3.527344 8.460938,-2.269531 6.515625,-1.367188 5.867188,-1.078125 5.148438,-0.9375 4.429688,-0.828125 3.671875,-0.757812 3.058594,-1.1875 2.664062,-1.90625 2.304688,-2.519531 2.050781,-3.203125 2.230469,-4.140625 3.707031,-4.679688 4.894531,-5.507812 5.902344,-6.695312 6.371094,-7.199219 6.804688,-7.8125 7.054688,-8.460938 c 0.46875,-1.1875 0.074218,-2.195312 -0.96875,-2.699218 -1.296876,-0.574219 -2.523438,-0.359375 -3.53125,0.71875 -1.617188,1.695312 -2.6250005,3.78125 -2.769532,6.265625 -0.109375,2.195312 0.933594,3.707031 2.808594,4.285156 1.546875,0.429687 3.058594,0.359375 4.535156,-0.363281 1.617188,-0.753906 3.09375,-1.835938 4.390625,-3.238282 0.394531,-0.46875 0.757813,-1.007812 1.082031,-1.582031 0.140626,-0.183593 0.105469,-0.503906 0.140626,-0.757812 -0.179688,-0.070313 -0.25,-0.109375 -0.285157,-0.070313 z M 4.789062,-9.863281 c 0.324219,0.429687 0.179688,0.898437 -0.035156,1.332031 -0.507812,1.007812 -1.152344,1.871094 -2.125,2.589844 0.285156,-1.941406 0.933594,-3.09375 2.160156,-3.921875 z m 0,0"
               id="path605" /></g></g></g><g
         fill="#008037"
         fill-opacity="1"
         id="g619"
         transform="matrix(1.7769213,0,0,1.7769213,-193.69487,-137.39059)"><g
           transform="translate(262.92204,165.17297)"
           id="g617"><g
             id="g615"><path
               d="m 12.457031,-3.996094 c -1.1875,0.71875 -2.195312,1.765625 -3.671875,2.449219 0.179688,-0.722656 0.285156,-1.261719 0.46875,-1.730469 0.574219,-1.546875 1.1875,-3.09375 1.726563,-4.644531 0.214843,-0.539063 0.394531,-1.113281 0.503906,-1.726563 0.144531,-0.972656 -0.289063,-1.367187 -1.296875,-1.402343 -0.648438,-0.03906 -1.222656,0.105469 -1.726562,0.464843 -0.863282,0.648438 -1.765626,1.296876 -2.59375,2.019532 -0.972657,0.863281 -1.871094,1.835937 -2.808594,2.769531 -0.179688,0.144531 -0.394532,0.253906 -0.828125,0.578125 0.363281,-1.226562 0.683593,-2.160156 0.902343,-3.097656 0.25,-1.042969 -0.074218,-1.402344 -1.152343,-1.367188 -0.214844,0 -0.394531,0.144532 -0.648438,0.214844 -0.503906,1.691406 -1.042969,3.382812 -1.476562,5.078125 -0.289063,1.1875 0.289062,1.796875 1.511719,1.511719 0.398437,-0.074219 0.792968,-0.324219 1.152343,-0.578125 0.578125,-0.46875 1.152344,-1.007813 1.691407,-1.511719 0.9375,-0.933594 1.875,-1.871094 2.808593,-2.769531 0.613281,-0.578125 1.261719,-1.046875 1.910157,-1.585938 0.285156,0.648438 -0.074219,1.082031 -0.21875,1.511719 -0.539063,1.65625 -1.152344,3.3125 -1.691407,4.96875 -0.179687,0.574219 -0.214843,1.1875 -0.25,1.800781 0,0.574219 0.324219,0.898438 0.898438,0.9726565 0.433593,0.0351563 0.898437,0.0351563 1.296875,-0.1093755 0.539062,-0.214843 1.078125,-0.503906 1.546875,-0.898437 1.765625,-1.441406 3.527343,-2.917969 5.292969,-4.394531 0.105468,-0.105469 0.179687,-0.25 0.394531,-0.539063 -1.65625,0.179688 -2.628907,1.257813 -3.742188,2.015625 z m 0,0"
               id="path613" /></g></g></g><g
         fill="#008037"
         fill-opacity="1"
         id="g627"
         transform="matrix(1.7769213,0,0,1.7769213,-193.69487,-137.39059)"><g
           transform="translate(277.35806,165.17297)"
           id="g625"><g
             id="g623"><path
               d="m 12.457031,-3.996094 c -1.1875,0.71875 -2.195312,1.765625 -3.671875,2.449219 0.179688,-0.722656 0.285156,-1.261719 0.46875,-1.730469 0.574219,-1.546875 1.1875,-3.09375 1.726563,-4.644531 0.214843,-0.539063 0.394531,-1.113281 0.503906,-1.726563 0.144531,-0.972656 -0.289063,-1.367187 -1.296875,-1.402343 -0.648438,-0.03906 -1.222656,0.105469 -1.726562,0.464843 -0.863282,0.648438 -1.765626,1.296876 -2.59375,2.019532 -0.972657,0.863281 -1.871094,1.835937 -2.808594,2.769531 -0.179688,0.144531 -0.394532,0.253906 -0.828125,0.578125 0.363281,-1.226562 0.683593,-2.160156 0.902343,-3.097656 0.25,-1.042969 -0.074218,-1.402344 -1.152343,-1.367188 -0.214844,0 -0.394531,0.144532 -0.648438,0.214844 -0.503906,1.691406 -1.042969,3.382812 -1.476562,5.078125 -0.289063,1.1875 0.289062,1.796875 1.511719,1.511719 0.398437,-0.074219 0.792968,-0.324219 1.152343,-0.578125 0.578125,-0.46875 1.152344,-1.007813 1.691407,-1.511719 0.9375,-0.933594 1.875,-1.871094 2.808593,-2.769531 0.613281,-0.578125 1.261719,-1.046875 1.910157,-1.585938 0.285156,0.648438 -0.074219,1.082031 -0.21875,1.511719 -0.539063,1.65625 -1.152344,3.3125 -1.691407,4.96875 -0.179687,0.574219 -0.214843,1.1875 -0.25,1.800781 0,0.574219 0.324219,0.898438 0.898438,0.9726565 0.433593,0.0351563 0.898437,0.0351563 1.296875,-0.1093755 0.539062,-0.214843 1.078125,-0.503906 1.546875,-0.898437 1.765625,-1.441406 3.527343,-2.917969 5.292969,-4.394531 0.105468,-0.105469 0.179687,-0.25 0.394531,-0.539063 -1.65625,0.179688 -2.628907,1.257813 -3.742188,2.015625 z m 0,0"
               id="path621" /></g></g></g><g
         fill="#008037"
         fill-opacity="1"
         id="g635"
         transform="matrix(1.7769213,0,0,1.7769213,-193.69487,-137.39059)"><g
           transform="translate(291.79408,165.17297)"
           id="g633"><g
             id="g631"><path
               d="m 12.203125,-9.394531 c -0.71875,0.285156 -0.898437,0.828125 -1.1875,1.257812 -1.761719,2.339844 -3.851563,4.320313 -6.371094,5.867188 -0.683593,0.433593 -1.367187,0.867187 -2.339843,0.9375 C 2.160156,-1.691406 1.980469,-2.015625 1.945312,-2.375 c 0,-0.433594 0.070313,-0.863281 0.179688,-1.296875 0.46875,-1.511719 0.933594,-3.023437 1.4375,-4.535156 0.144531,-0.503907 0.433594,-1.007813 0.363281,-1.550781 -1.226562,-0.429688 -1.585937,-0.359376 -2.125,0.542968 C 0.792969,-7.453125 0,-5.578125 -0.46875,-3.601562 c -0.035156,0.21875 -0.070312,0.433593 -0.105469,0.648437 -0.21875,1.765625 0.5390628,2.699219 2.339844,2.773437 1.257813,0.070313 2.375,-0.253906 3.453125,-0.898437 2.484375,-1.550781 4.609375,-3.492187 6.191406,-6.015625 0.324219,-0.503906 0.578125,-1.042969 0.792969,-1.617188 0.07422,-0.144531 0,-0.359374 0,-0.683593 z m -7.59375,-3.746094 c 0.179687,-0.144531 0.324219,-0.289063 0.429687,-0.46875 0.253907,-0.539063 0.46875,-1.078125 0.792969,-1.726563 -1.007812,-0.289062 -1.871093,-0.253906 -2.699219,0.214844 -0.648437,0.359375 -0.863281,1.1875 -0.539062,1.691406 0.429688,0.648438 1.402344,0.792969 2.015625,0.289063 z m 0,0"
               id="path629" /></g></g></g></g><g
       id="g13540"
       transform="translate(-17.848591,-95.178797)"
       style="display:inline"><path
         fill="#008037"
         d="m 209.71875,104.80469 c -0.30078,-1.50781 -0.85938,-2.91406 -1.67969,-4.21875 -0.41406,-0.660159 -0.89062,-1.265628 -1.43359,-1.824221 -0.54297,-0.554688 -1.13672,-1.046875 -1.78516,-1.476563 -1.28515,-0.847656 -2.67578,-1.429687 -4.17578,-1.757812 -2.96094,-0.628906 -5.85156,-0.40625 -8.67969,0.664062 -1.38672,0.519532 -2.66797,1.230469 -3.83984,2.136719 -1.13672,0.894531 -2.14844,1.914065 -3.03516,3.058595 -1.71093,2.27344 -2.9375,4.78516 -3.67187,7.53125 -0.0781,0.26953 -0.14453,0.54297 -0.21094,0.8125 -0.39062,-0.96484 -0.85156,-1.89844 -1.37891,-2.79688 -1.8164,-3.05468 -4.55859,-5.70703 -8.07421,-6.89843 -1.75391,-0.578129 -3.55079,-0.789066 -5.39454,-0.636722 -1.83984,0.140624 -3.5664,0.656252 -5.17968,1.546872 -1.66016,0.91407 -2.94922,2.19532 -3.8711,3.84375 -0.83203,1.60547 -1.33593,3.3086 -1.51172,5.10547 -0.17968,1.7461 -0.11718,3.48438 0.17969,5.21485 0.28516,1.71484 0.76563,3.37109 1.44141,4.97656 0.66406,1.60156 1.51953,3.09765 2.5625,4.48828 1.03906,1.37891 2.21484,2.62891 3.52734,3.75 2.59766,2.24219 5.54297,3.98828 8.55078,5.51953 3.00782,1.53516 6.10547,2.84766 9.20703,4.17187 l 0.21094,-0.47656 c -3.05078,-1.40625 -6.10547,-2.80859 -9.04297,-4.40625 -2.9375,-1.59375 -5.75,-3.39844 -8.18359,-5.62109 -1.22266,-1.10156 -2.3125,-2.32031 -3.27344,-3.65625 -0.95312,-1.32813 -1.72656,-2.75391 -2.3164,-4.27734 -0.59375,-1.51563 -1.00782,-3.08204 -1.23829,-4.69532 -0.23828,-1.60156 -0.2539,-3.20312 -0.0547,-4.80859 0.10156,-0.78906 0.27343,-1.56641 0.51172,-2.32422 0.0625,-0.19531 0.11718,-0.375 0.19921,-0.55859 0.0781,-0.1836 0.13672,-0.36719 0.21485,-0.54688 0.0781,-0.17578 0.15625,-0.35547 0.24219,-0.53125 0.0898,-0.17187 0.17187,-0.33984 0.26953,-0.5039 0.78906,-1.33985 1.8789,-2.36719 3.26172,-3.08204 1.39453,-0.72265 2.875,-1.125 4.44531,-1.20312 1.5625,-0.0977 3.08594,0.11719 4.5625,0.63672 0.72265,0.25781 1.40625,0.59375 2.05078,1.00781 0.65625,0.41797 1.26953,0.89063 1.83984,1.41797 1.14844,1.07812 2.10547,2.30469 2.86719,3.67969 1.54297,2.75 2.35156,5.91406 2.51953,9.08203 l 2.54688,-0.0703 c 0.0508,-2.52344 0.42968,-5 1.13672,-7.42188 0.6875,-2.37891 1.79687,-4.54687 3.32421,-6.5 0.75391,-0.93359 1.60547,-1.76172 2.5625,-2.48828 0.94532,-0.695314 1.97657,-1.234376 3.08594,-1.621095 2.26172,-0.804687 4.5586,-0.933594 6.89453,-0.394531 1.10157,0.261718 2.11719,0.710937 3.05078,1.351566 0.44922,0.30859 0.85938,0.66406 1.23047,1.0625 0.375,0.39843 0.70313,0.83203 0.98438,1.29687 1.14453,1.875 1.49609,4.21094 1.30469,6.57813 -0.19141,2.36718 -0.87891,4.77343 -1.82813,7.0664 -0.98828,2.36328 -2.10156,4.66797 -3.34766,6.91016 -2.46093,4.48828 -5.47265,8.57031 -9.03906,12.24609 -0.44922,0.44141 -0.89844,0.88672 -1.35547,1.32031 l -0.69922,0.64063 -0.34765,0.32031 -0.3711,0.32422 c -0.98437,0.86328 -1.97265,1.72266 -2.96484,2.57813 -1.98437,1.69921 -3.99219,3.38671 -6.01172,5.05859 -8.09375,6.65625 -16.47265,12.9375 -25.1289,18.84375 -8.63672,5.90234 -17.47266,11.50391 -26.5586,16.61719 -4.54687,2.55078 -9.15234,4.98437 -13.85547,7.1875 -2.34765,1.10547 -4.73046,2.15625 -7.11718,3.11328 -2.39063,0.95703 -4.81641,1.85937 -7.25782,2.60937 -1.222652,0.375 -2.441402,0.71875 -3.679684,1.01172 l -1.898437,0.4336 -1.90625,0.40234 c -2.546875,0.51562 -5.101563,0.98047 -7.683594,1.33203 -5.140625,0.74609 -10.3125,1.07031 -15.507813,0.96875 -2.59375,-0.0586 -5.171874,-0.25781 -7.742187,-0.59766 -2.578125,-0.32812 -5.117187,-0.83203 -7.621094,-1.51171 -2.515625,-0.6836 -4.960937,-1.54688 -7.34375,-2.59766 -1.179687,-0.54688 -2.363281,-1.10938 -3.492187,-1.75 -1.132813,-0.64063 -2.253906,-1.32813 -3.347656,-2.04688 l -0.316407,0.41407 c 1.027344,0.83984 2.082031,1.65625 3.195313,2.39062 1.109375,0.73438 2.246094,1.4375 3.414062,2.08985 2.355469,1.28515 4.804688,2.36718 7.339844,3.25 5.074219,1.77734 10.40625,2.77734 15.757812,3.22265 5.371094,0.41406 10.734376,0.35547 16.09375,-0.17187 2.671876,-0.26172 5.332032,-0.60157 7.976563,-1.02735 l 1.980469,-0.33593 1.96875,-0.3711 c 1.34375,-0.2539 2.683596,-0.55859 3.996096,-0.90234 5.26562,-1.39063 10.30078,-3.29688 15.21875,-5.41406 4.92187,-2.11719 9.71094,-4.5 14.40234,-7.03516 9.35938,-5.10938 18.35547,-10.79297 26.98828,-17.04688 8.61328,-6.21875 16.91406,-12.83984 24.94531,-19.7539 2.01172,-1.73047 4.00391,-3.47656 5.97657,-5.24219 0.98828,-0.88281 1.97265,-1.77344 2.95703,-2.66406 l 0.36719,-0.33203 0.375,-0.35547 0.74609,-0.70703 c 0.49219,-0.48047 0.97266,-0.96875 1.44922,-1.46094 3.75,-3.99219 6.90234,-8.40625 9.45312,-13.25 1.26953,-2.38672 2.39844,-4.83594 3.39453,-7.35156 1.01172,-2.57813 1.75391,-5.30078 1.94532,-8.1836 0.10547,-1.47265 0.0117,-2.92968 -0.27344,-4.3789 z m 0,0"
         fill-opacity="1"
         fill-rule="nonzero"
         id="path13525"
         style="display:inline" /><g
         clip-path="url(#8ab8a59111)"
         id="g13529"
         style="display:inline"><path
           fill="#008037"
           d="m 357.01953,155.05469 c -0.34375,-4.09375 -1.30859,-8.03907 -2.89062,-11.83203 -0.78907,-1.87891 -1.70313,-3.69141 -2.7461,-5.44141 -1.04687,-1.72656 -2.20312,-3.37891 -3.46484,-4.96094 l -0.95313,-1.16797 -1,-1.1289 -0.25,-0.28125 -0.26172,-0.27344 -0.51562,-0.54297 -0.52344,-0.53516 -0.53906,-0.52343 c -0.35938,-0.34375 -0.70703,-0.70703 -1.08203,-1.03906 l -1.10938,-1.00391 c -0.75781,-0.64844 -1.51172,-1.30078 -2.30078,-1.91016 -6.25,-4.94531 -13.35156,-8.60156 -20.73437,-11.26562 -1.85157,-0.65625 -3.71875,-1.25781 -5.60547,-1.8086 -1.88672,-0.54687 -3.79297,-0.95703 -5.69141,-1.41796 l -0.71094,-0.16797 c -0.23828,-0.0586 -0.48046,-0.0977 -0.71875,-0.14453 l -1.4375,-0.27735 c -0.96093,-0.17969 -1.91406,-0.375 -2.875,-0.54297 l -4.33593,-0.64453 c -0.48438,-0.0703 -0.96875,-0.10547 -1.45313,-0.16015 l -2.90625,-0.3086 c -0.24219,-0.0273 -0.48437,-0.0547 -0.72656,-0.0742 l -0.73047,-0.0469 -2.91406,-0.1875 c -0.48438,-0.0234 -0.96875,-0.0742 -1.45703,-0.0742 l -2.91797,-0.0625 -1.45703,-0.0312 -1.46094,0.0273 -2.91406,0.0547 c -0.48828,0 -0.97266,0.043 -1.45703,0.0703 l -1.45313,0.0859 -1.45703,0.0859 -0.72656,0.0469 c -0.24219,0.0117 -0.48438,0.043 -0.72657,0.0664 -7.7539,0.67969 -15.375,2.09375 -22.85937,4.23437 l -2.77344,0.8711 c -0.92578,0.29297 -1.85547,0.5664 -2.75781,0.91015 l -2.73438,0.98438 -0.68359,0.24219 c -0.23047,0.0859 -0.44922,0.18359 -0.67578,0.27343 l -1.34766,0.54688 c -0.89453,0.37109 -1.79687,0.72656 -2.68359,1.10937 l -2.63672,1.21875 -1.32031,0.60547 c -0.4375,0.19532 -0.88281,0.39453 -1.3086,0.62891 l -2.57812,1.32812 c -1.73828,0.85157 -3.39844,1.84766 -5.08984,2.78516 l -1.26172,0.71094 c -0.41407,0.24609 -0.82422,0.5039 -1.23828,0.7539 l -2.47266,1.51172 c -0.41016,0.25391 -0.82813,0.4961 -1.23047,0.76563 l -1.21094,0.79297 -2.41406,1.59375 -0.60937,0.39062 -0.58985,0.41016 -1.17969,0.82422 -2.3789,1.64843 -4.6875,3.39844 -4.60938,3.48828 c -1.51562,1.17969 -3.04687,2.35547 -4.55859,3.55078 l -4.53516,3.59766 c -2.8125,2.25391 -5.61328,4.51562 -8.40625,6.78906 L 181.20312,153.1875 179,151.32422 c -1.46484,-1.25 -2.95313,-2.47266 -4.44141,-3.70703 -2.99218,-2.4375 -6,-4.86328 -9.09765,-7.17578 -3.09766,-2.3125 -6.25,-4.56641 -9.46875,-6.70704 -1.63672,-1.03906 -3.24219,-2.11718 -4.92578,-3.08984 -0.83204,-0.49609 -1.65235,-1.00781 -2.49219,-1.48437 l -2.53906,-1.41407 c -0.42579,-0.23046 -0.84375,-0.48046 -1.27735,-0.69921 l -1.28906,-0.64844 c -0.86328,-0.4336 -1.72266,-0.88672 -2.59375,-1.30469 l -2.64063,-1.21094 c -0.4375,-0.19531 -0.87109,-0.41015 -1.32031,-0.58984 l -1.34375,-0.55078 c -0.89453,-0.36328 -1.78515,-0.73828 -2.6875,-1.08594 l -2.73047,-0.97266 c -0.45703,-0.16015 -0.91015,-0.32812 -1.36718,-0.48046 l -1.37891,-0.42188 -2.78125,-0.84375 -0.15625,0.49609 2.69531,0.99219 1.35156,0.49219 c 0.44532,0.17578 0.88282,0.37109 1.32422,0.55078 l 2.65235,1.10938 c 0.87109,0.39453 1.73047,0.8125 2.59765,1.21484 l 1.30078,0.60937 c 0.42969,0.19532 0.84766,0.4336 1.27344,0.65235 l 2.54688,1.32031 c 0.83593,0.45703 1.66015,0.94141 2.49218,1.41016 l 1.2461,0.71093 c 0.41406,0.23047 0.8125,0.49219 1.22265,0.73828 l 2.44141,1.5 c 0.80469,0.50782 1.59375,1.04688 2.39453,1.57032 1.60547,1.03125 3.14844,2.16015 4.71094,3.2539 0.78516,0.55078 1.53516,1.13672 2.30078,1.70313 0.76953,0.5664 1.53906,1.1289 2.28516,1.72656 l 2.25781,1.76563 c 0.37891,0.28906 0.75,0.58984 1.12109,0.89453 l 1.10938,0.90625 c 5.20703,4.22656 10.23047,8.6875 15.20703,13.22265 -2.28516,1.84375 -4.58203,3.67578 -6.88281,5.4961 -6.01953,4.75 -12.12891,9.34765 -18.44141,13.63281 -6.28906,4.30859 -12.78906,8.26953 -19.5,11.88281 l -2.51562,1.33203 -0.62891,0.33203 -0.64063,0.31641 -1.27734,0.625 -2.53906,1.25391 -2.58594,1.17578 -1.29297,0.58984 c -0.42968,0.19531 -0.85937,0.39453 -1.30078,0.57031 l -2.61719,1.09375 -1.3125,0.55079 c -0.4375,0.17578 -0.8789,0.33203 -1.32031,0.5039 l -2.65625,1 c -0.875,0.34766 -1.76953,0.62891 -2.67187,0.92969 l -2.6875,0.90625 c -0.22266,0.0781 -0.44922,0.14453 -0.67578,0.21094 l -0.67579,0.19531 -1.35937,0.39062 -1.35547,0.39454 -0.67969,0.19531 -0.33984,0.10156 -0.34375,0.082 -2.746095,0.67969 c -0.914063,0.22656 -1.824219,0.47656 -2.757813,0.64453 l -2.765624,0.5625 c -0.460938,0.0898 -0.921876,0.19531 -1.378907,0.27734 l -1.394531,0.22657 c -7.417969,1.19922 -14.96875,1.60937 -22.414062,0.91015 C 65.519531,202.5 61.851562,201.86719 58.230469,200.9375 54.628906,200 51.136719,198.74609 47.757812,197.18359 40.949219,193.96484 35.125,189.48437 30.285156,183.73047 c -2.394531,-2.84766 -4.398437,-5.94531 -6.015625,-9.28906 -1.621093,-3.34766 -2.734375,-6.85547 -3.351562,-10.52344 -1.195313,-7.26172 0.03516,-14.96485 3.300781,-21.69531 1.640625,-3.40625 3.785156,-6.46094 6.433594,-9.16407 1.332031,-1.34765 2.777344,-2.5625 4.335937,-3.64453 1.566407,-1.08203 3.222657,-2.00781 4.96875,-2.76953 l -0.199219,-0.48437 c -3.722656,1.34375 -7.042968,3.34375 -9.964843,6.00781 -2.929688,2.67187 -5.335938,5.74609 -7.222657,9.22656 -1.902343,3.49219 -3.234374,7.1875 -4,11.08594 -0.785156,3.92969 -0.929687,7.8789 -0.433593,11.85547 0.519531,3.96875 1.597656,7.78515 3.222656,11.44922 1.628906,3.64843 3.6875,7.04296 6.175781,10.17968 2.488282,3.1211 5.285156,5.94141 8.398438,8.45313 3.109375,2.50781 6.457031,4.65234 10.042968,6.42969 7.148438,3.53125 14.953126,5.58593 22.824219,6.41796 7.867188,0.83204 15.824219,0.48438 23.59375,-0.74218 l 1.457031,-0.23438 c 0.484376,-0.0781 0.964844,-0.18359 1.445313,-0.27344 l 2.890625,-0.57031 c 0.96875,-0.17187 1.91797,-0.42187 2.87109,-0.65234 l 2.86329,-0.70313 0.35937,-0.0937 1.05469,-0.30468 1.41406,-0.41407 1.41016,-0.41406 0.70312,-0.20703 c 0.23828,-0.0664 0.47266,-0.13672 0.70313,-0.21875 l 2.78515,-0.94141 c 0.92188,-0.32031 1.85547,-0.61718 2.75782,-0.98047 l 2.73828,-1.05468 c 0.45312,-0.17969 0.91406,-0.34375 1.36718,-0.53516 l 1.34766,-0.57422 2.69141,-1.16015 c 0.44922,-0.1836 0.89062,-0.39063 1.33203,-0.60547 l 1.32422,-0.625 2.64453,-1.25391 2.60156,-1.33984 1.29687,-0.66797 0.64844,-0.33594 0.64063,-0.35547 2.55859,-1.42187 1.27734,-0.70703 c 0.41797,-0.24219 0.83594,-0.4961 1.25391,-0.74219 l 2.49609,-1.4961 c 0.83594,-0.49218 1.64844,-1.02343 2.47266,-1.54296 l 2.45703,-1.5586 c 0.8125,-0.52734 1.61328,-1.08203 2.41797,-1.61719 0.80859,-0.53906 1.61328,-1.07812 2.41406,-1.63281 l 2.36328,-1.67578 c 0.78516,-0.5625 1.57422,-1.11328 2.36329,-1.69922 l 2.33203,-1.72656 1.16406,-0.86719 1.14844,-0.88672 c 1.52734,-1.17968 3.0664,-2.35547 4.5625,-3.57422 l 2.26562,-1.8125 2.23047,-1.84375 2.22656,-1.84765 2.20703,-1.86719 c 2.33204,-1.97656 4.64844,-3.96875 6.95704,-5.96875 l 0.16406,0.14844 c 2.33984,2.14453 4.67578,4.29687 7.00781,6.45703 l -0.28125,0.44922 c -0.59375,1.01953 -1.18359,2.02734 -1.77344,3.05078 -1.14062,2.05469 -2.19922,4.15625 -3.15234,6.3125 -1.90234,4.30469 -3.32422,8.84766 -3.95313,13.52344 -0.67578,4.73828 -0.35937,9.41015 0.94922,14.01172 0.65625,2.27734 1.58594,4.42968 2.79297,6.46875 1.20313,2.03906 2.67578,3.86328 4.41016,5.47656 l 0.19922,-0.20703 c -1.67578,-1.62891 -3.07813,-3.46094 -4.21485,-5.4961 -1.14062,-2.02734 -2.00781,-4.16015 -2.59765,-6.40625 -1.1875,-4.52734 -1.40625,-9.10156 -0.65625,-13.72265 0.70703,-4.5586 2.1875,-8.98047 4.13672,-13.17188 0.97265,-2.09765 2.05468,-4.14453 3.21875,-6.14844 0.59375,-0.99609 1.20312,-1.98046 1.80468,-2.96875 0.0469,-0.0742 0.0937,-0.14843 0.14453,-0.21875 2.96875,2.73829 5.94922,5.46875 8.97266,8.16797 0.71484,0.64844 1.44531,1.28125 2.16797,1.92188 0.71875,0.64062 1.44531,1.27734 2.17969,1.91015 l 2.19922,1.88672 c 0.37109,0.3125 0.73437,0.62891 1.10546,0.94141 l 1.1211,0.92578 2.24609,1.85547 2.27735,1.8125 1.13671,0.90625 1.15625,0.89062 2.31641,1.76563 c 3.13672,2.30469 6.30469,4.58594 9.61328,6.67578 1.625,1.08203 3.32031,2.0625 5.00391,3.07031 0.21094,0.125 0.41797,0.25 0.6289,0.375 l 0.64844,0.35547 2.57813,1.41406 0.64453,0.35547 0.66015,0.33203 c 3.4961,1.82032 7.08204,3.44922 10.75782,4.88282 l 1.3789,0.52734 c 0.46094,0.17188 0.91797,0.35547 1.37891,0.51172 l 2.79297,0.96094 2.82422,0.88281 c 0.46875,0.15234 0.9414,0.27734 1.41797,0.41016 l 1.42578,0.39453 c 3.80859,1.02734 7.66015,1.85547 11.55859,2.48047 3.90234,0.61328 7.82422,1.01953 11.76953,1.21875 0.98438,0.0508 1.96875,0.10937 2.95313,0.11328 l 1.48047,0.0273 c 0.49609,0 0.98437,0.0195 1.48046,0 l 2.95704,-0.0469 2.95312,-0.14063 c 3.96094,-0.22656 7.89063,-0.69141 11.78906,-1.40234 3.92188,-0.70703 7.77735,-1.67969 11.56641,-2.91407 3.80078,-1.25 7.47656,-2.79296 11.02734,-4.63671 3.57813,-1.85157 6.94141,-4.03516 10.09375,-6.53907 1.55469,-1.27343 3.09766,-2.57422 4.53125,-4.00781 4.34375,-4.30469 7.83985,-9.21094 10.48047,-14.72266 1.76172,-3.66015 3.05469,-7.47656 3.875,-11.45312 0.83594,-4.00781 1.08985,-8.05078 0.76172,-12.13281 z m -165.56641,-6.59375 c 5.85547,-4.95703 11.78907,-9.8125 17.99219,-14.3125 l 2.33985,-1.66797 1.17187,-0.82813 0.58984,-0.41406 0.58985,-0.39453 2.39062,-1.58984 1.19532,-0.78516 c 0.39453,-0.26563 0.8125,-0.50391 1.21875,-0.76172 l 2.4414,-1.5039 c 0.40625,-0.25 0.8086,-0.50391 1.21875,-0.75 l 1.25,-0.70704 c 1.66406,-0.9375 3.3125,-1.90625 5.03125,-2.74609 l 2.5586,-1.30469 c 0.42187,-0.22656 0.85937,-0.42187 1.29687,-0.61718 l 1.30078,-0.58985 2.60938,-1.17578 c 0.8789,-0.37109 1.77343,-0.71484 2.65625,-1.07422 l 1.32812,-0.53125 c 0.21875,-0.0859 0.4375,-0.17969 0.66406,-0.26172 l 0.67579,-0.23437 2.70312,-0.94531 c 0.89453,-0.32813 1.81641,-0.58594 2.73047,-0.86329 l 2.73828,-0.82031 c 7.38672,-2.00781 14.89844,-3.25 22.53906,-3.73047 0.23828,-0.0156 0.47657,-0.043 0.71485,-0.0469 l 0.71093,-0.0273 1.42969,-0.0469 1.42578,-0.0469 c 0.47657,-0.0156 0.95313,-0.0469 1.42969,-0.0312 l 2.85547,0.0234 1.42578,0.0156 1.42578,0.0742 2.85156,0.14453 c 0.47266,0.0156 0.94532,0.0781 1.41797,0.11718 l 1.42188,0.13282 1.41797,0.13281 0.71093,0.0664 c 0.23438,0.0234 0.46875,0.0625 0.70704,0.0898 l 2.82421,0.39453 c 0.46875,0.0664 0.94141,0.11719 1.41016,0.19531 l 1.40234,0.25391 0.58985,0.10937 c -1.75,-0.17578 -3.50781,-0.28906 -5.26172,-0.37109 -2.36328,-0.10547 -4.73438,-0.12891 -7.11328,-0.0742 -2.36328,0.0703 -4.72656,0.19531 -7.08985,0.40625 -2.36328,0.21094 -4.70703,0.49219 -7.04687,0.82422 l -1.75391,0.27344 c -0.58984,0.0977 -1.16797,0.17578 -1.75,0.28906 l -1.74609,0.30078 c -0.58984,0.10547 -1.16406,0.20703 -1.73828,0.33594 -2.31641,0.47656 -4.6211,1.01562 -6.91016,1.60937 -4.57422,1.20704 -9.07031,2.64844 -13.49609,4.32032 -4.42188,1.66406 -8.74219,3.5625 -12.96094,5.6914 -8.47656,4.24219 -16.32812,9.42969 -23.55078,15.56641 -7.02344,5.95703 -13.125,12.74219 -18.30078,20.35156 -2.1836,-1.90234 -4.3711,-3.80078 -6.56641,-5.69141 2.6211,-2.26953 5.2461,-4.52734 7.88281,-6.77343 z m 159.97657,17.71875 c -0.78516,3.5625 -1.99219,6.97656 -3.61719,10.24609 -2.44531,4.94141 -5.65234,9.33203 -9.61719,13.17578 -1.29687,1.26953 -2.71484,2.4336 -4.13672,3.57813 -2.91015,2.25781 -6.00781,4.21875 -9.29297,5.88672 -3.30078,1.67578 -6.71484,3.07812 -10.24218,4.21093 -3.54297,1.14453 -7.14844,2.03907 -10.81641,2.69141 -3.68359,0.65625 -7.39062,1.09375 -11.12109,1.32031 -3.74219,0.22266 -7.48438,0.2461 -11.22657,0.0664 -3.75,-0.16406 -7.48046,-0.52344 -11.1914,-1.08203 -3.70703,-0.57422 -7.38281,-1.32813 -11.03125,-2.25391 l -1.35938,-0.35937 c -0.45312,-0.1211 -0.91015,-0.23829 -1.35547,-0.375 l -2.69921,-0.80469 -2.67188,-0.89063 c -0.44531,-0.14062 -0.88281,-0.30859 -1.32422,-0.47265 l -1.32031,-0.48438 c -0.88672,-0.30859 -1.75,-0.67578 -2.62109,-1.02344 l -1.30469,-0.52343 -1.29297,-0.5625 c -1.72656,-0.72657 -3.40625,-1.57032 -5.10156,-2.38282 l -0.63672,-0.30859 -0.6211,-0.32812 -1.25,-0.66407 -1.24609,-0.66015 -0.625,-0.32813 c -0.20703,-0.11719 -0.41016,-0.23437 -0.61328,-0.35156 -1.63281,-0.94922 -3.28125,-1.85938 -4.875,-2.875 -3.23438,-1.95313 -6.35547,-4.10938 -9.45313,-6.29688 -6.16406,-4.4375 -12.10156,-9.22656 -17.9375,-14.18359 -3.20703,-2.71875 -6.38671,-5.48047 -9.57031,-8.24219 5.22656,-7.46093 11.36328,-14.08984 18.40625,-19.8789 7.1875,-5.91797 14.97656,-10.89453 23.3711,-14.92969 4.17578,-2.01953 8.44531,-3.80469 12.8164,-5.36328 4.36719,-1.54688 8.80469,-2.86328 13.3086,-3.94922 2.25,-0.55469 4.51171,-1.03516 6.78515,-1.47656 0.5625,-0.11719 1.13672,-0.21485 1.70313,-0.31641 l 1.71093,-0.30078 c 1.14063,-0.19531 2.28907,-0.34766 3.42579,-0.53516 4.57812,-0.67187 9.17578,-1.11328 13.79687,-1.3164 2.30859,-0.11719 4.61719,-0.14063 6.92188,-0.0937 2.30859,0.0508 4.61328,0.17578 6.91015,0.39453 2.29297,0.21875 4.58594,0.50391 6.85547,0.89844 1.13281,0.21484 2.26563,0.42187 3.39063,0.67968 l 0.84375,0.17969 c 0.28515,0.0664 0.5625,0.13672 0.84375,0.19531 0.55859,0.14454 1.12109,0.26954 1.67578,0.42579 2.23437,0.58984 4.42578,1.3125 6.59765,2.10156 0.53907,0.20703 1.08594,0.39453 1.61719,0.61719 l 1.60547,0.66015 c 1.05469,0.47266 2.11328,0.94141 3.15234,1.46094 1.52735,0.75391 3.03907,1.55859 4.50782,2.43359 0.26171,0.17578 0.52343,0.34766 0.78906,0.52344 1.53906,1.05078 3.01953,2.17578 4.44531,3.35938 0.72266,0.58593 1.40234,1.20312 2.09375,1.82031 l 1.00391,0.94922 c 0.33984,0.3125 0.64843,0.65625 0.98437,0.98437 1.28125,1.30469 2.48047,2.68359 3.59375,4.13281 1.10938,1.44922 2.125,2.95703 3.04297,4.53125 0.89844,1.57032 1.6875,3.19532 2.36328,4.8711 1.34766,3.36328 2.15235,6.85156 2.41016,10.46484 0.25,3.62109 -0.0195,7.20703 -0.80078,10.75391 z m -221.69532,31.14843 c 9.21094,-4.55078 17.97657,-10.02343 26.47657,-15.94531 -7.79688,6.9336 -16.26563,12.91797 -25.41016,17.96094 -9.15234,5.01172 -18.96484,8.94531 -29.1914,11.3125 -0.64063,0.14453 -1.27735,0.30469 -1.92188,0.4375 l -1.929688,0.375 -0.964843,0.19531 c -0.324219,0.0664 -0.644531,0.12891 -0.96875,0.17578 l -1.945313,0.29688 c -1.292968,0.21875 -2.601562,0.35156 -3.90625,0.50781 -1.300781,0.15234 -2.613281,0.24219 -3.917968,0.34766 -5.246094,0.36328 -10.488282,0.28515 -15.71875,-0.24219 -10.484376,-1.06641 -20.480469,-3.85938 -29.992188,-8.37891 4.890625,1.66797 9.867188,3.03125 14.929688,4.08985 5.03125,1.04687 10.113281,1.72265 15.246093,2.02734 10.273438,0.58984 20.414063,-0.29297 30.429689,-2.65234 9.95703,-2.3086 19.58984,-5.94922 28.78515,-10.50782 z m 117.95704,-90.32421 c -8.54297,2.18359 -16.83985,5.08593 -24.87891,8.69922 7.52344,-4.66797 15.74219,-8.26563 24.26562,-10.88282 8.57813,-2.61328 17.34375,-4.22265 26.29297,-4.832029 8.94922,-0.609375 17.85157,-0.199219 26.70703,1.226559 8.80079,1.4375 17.4336,3.89063 25.52344,7.50391 -8.46094,-2.49219 -17.07031,-4.24219 -25.83594,-5.25 -8.71484,-0.98828 -17.44531,-1.1875 -26.19921,-0.59375 -8.75,0.59375 -17.375,1.96875 -25.875,4.125 z m 0,0"
           fill-opacity="1"
           fill-rule="nonzero"
           id="path13527"
           style="display:inline" /></g></g></g></svg>
