<?xml version="1.0" encoding="UTF-8" standalone="no"?>
<svg
   width="395"
   zoomAndPan="magnify"
   viewBox="0 0 296.25 278.999983"
   height="372"
   preserveAspectRatio="xMidYMid meet"
   version="1.0"
   id="svg36"
   sodipodi:docname="zarti_jenni Logo aktuell.svg"
   inkscape:version="1.2.2 (b0a84865, 2022-12-01)"
   xmlns:inkscape="http://www.inkscape.org/namespaces/inkscape"
   xmlns:sodipodi="http://sodipodi.sourceforge.net/DTD/sodipodi-0.dtd"
   xmlns="http://www.w3.org/2000/svg"
   xmlns:svg="http://www.w3.org/2000/svg">
  <sodipodi:namedview
     id="namedview38"
     pagecolor="#ffffff"
     bordercolor="#000000"
     borderopacity="0.25"
     inkscape:showpageshadow="2"
     inkscape:pageopacity="0.0"
     inkscape:pagecheckerboard="0"
     inkscape:deskcolor="#d1d1d1"
     showgrid="false"
     inkscape:zoom="1.5771768"
     inkscape:cx="137.58762"
     inkscape:cy="191.48138"
     inkscape:window-width="1440"
     inkscape:window-height="788"
     inkscape:window-x="0"
     inkscape:window-y="25"
     inkscape:window-maximized="1"
     inkscape:current-layer="svg36" />
  <defs
     id="defs10">
    <g
       id="g2" />
    <clipPath
       id="d9468dcc8d">
      <path
         d="M 80.359375 142 L 220.253906 142 L 220.253906 203.28125 L 80.359375 203.28125 Z M 80.359375 142 "
         clip-rule="nonzero"
         id="path4" />
    </clipPath>
    <clipPath
       id="dd5363a22b">
      <path
         d="M 104 75.355469 L 203 75.355469 L 203 174 L 104 174 Z M 104 75.355469 "
         clip-rule="nonzero"
         id="path7" />
    </clipPath>
  </defs>
  <g
     clip-path="url(#d9468dcc8d)"
     id="g14"
     transform="matrix(0.99660068,0,0,1,0.27316736,0)">
    <path
       fill="#007f00"
       d="m 214.50391,142.40625 c -0.97657,-0.0312 -1.96094,-0.0234 -2.94532,0.0273 -0.98828,0.0469 -1.98047,0.13672 -2.96875,0.26172 -0.125,0.0156 -0.25,0.0352 -0.375,0.0508 -0.12109,0.0195 -0.24609,0.0352 -0.37109,0.0547 -0.12109,0.0195 -0.24609,0.0391 -0.37109,0.0586 -0.125,0.0195 -0.2461,0.0391 -0.3711,0.0586 -0.25,0.0469 -0.49609,0.0859 -0.74219,0.13672 -0.125,0.0234 -0.25,0.0469 -0.37109,0.0703 -0.125,0.0273 -0.25,0.0508 -0.37109,0.0781 l -0.1875,0.0391 c -0.0625,0.0117 -0.1211,0.0273 -0.1836,0.0391 -0.125,0.0273 -0.24609,0.0547 -0.37109,0.0859 -0.125,0.0273 -0.24609,0.0586 -0.37109,0.0859 -0.1211,0.0312 -0.2461,0.0586 -0.3711,0.0937 -0.12109,0.0273 -0.24609,0.0625 -0.36719,0.0937 l -0.18359,0.0469 -0.1875,0.0508 c -0.12109,0.0352 -0.24609,0.0664 -0.36719,0.10156 -0.125,0.0352 -0.24609,0.0703 -0.36718,0.10547 -0.2461,0.0703 -0.49219,0.14844 -0.73438,0.22266 -0.125,0.0391 -0.24609,0.0781 -0.36719,0.11719 -0.12109,0.0391 -0.24609,0.0781 -0.36718,0.11718 -0.1211,0.043 -0.24219,0.0859 -0.36329,0.125 l -0.18359,0.0625 -0.17969,0.0664 c -0.125,0.043 -0.24609,0.0859 -0.36718,0.12891 -0.1211,0.043 -0.24219,0.0898 -0.36329,0.13671 -0.24218,0.0859 -0.48046,0.17969 -0.72265,0.27344 -0.1211,0.0469 -0.23828,0.0977 -0.35938,0.14453 -0.12109,0.0508 -0.24218,0.0977 -0.35937,0.14844 -0.1211,0.0508 -0.24219,0.0977 -0.35938,0.14844 l -0.18359,0.0781 -0.17578,0.0781 c -0.1211,0.0508 -0.23828,0.10156 -0.35938,0.15234 -0.11718,0.0547 -0.23828,0.10938 -0.35547,0.16016 -0.94921,0.42969 -1.89062,0.89453 -2.82031,1.38281 -0.93359,0.49219 -1.85156,1.01563 -2.76172,1.55859 -0.11328,0.0664 -0.22656,0.13672 -0.33984,0.20704 -0.11328,0.0703 -0.23047,0.13671 -0.33984,0.20703 -0.11329,0.0703 -0.22657,0.14062 -0.33985,0.21093 l -0.17187,0.10547 -0.16797,0.10938 c -0.10938,0.0703 -0.22266,0.14062 -0.33594,0.21484 -0.11328,0.0703 -0.22266,0.14453 -0.33594,0.21485 -0.22656,0.14453 -0.44531,0.29296 -0.67187,0.4414 -0.89063,0.59375 -1.76953,1.21094 -2.64063,1.84375 -0.875,0.63672 -1.73437,1.28906 -2.59375,1.96094 -0.85547,0.67187 -1.70312,1.35547 -2.54687,2.05469 -0.83985,0.70312 -1.67578,1.41406 -2.50781,2.14062 -0.83204,0.72266 -1.66016,1.45703 -2.48047,2.20313 -3.29688,2.97656 -6.53907,6.09765 -9.85157,9.21484 -1.65625,1.55859 -3.33203,3.11719 -5.03906,4.65234 -1.71094,1.53907 -3.45703,3.05079 -5.25781,4.50782 -0.22266,0.18359 -0.45313,0.36328 -0.67578,0.54687 -0.23047,0.17578 -0.45703,0.35938 -0.6836,0.53516 -0.46093,0.35937 -0.92187,0.71094 -1.38671,1.05859 -0.11719,0.0898 -0.23438,0.17578 -0.34766,0.26172 -0.12109,0.0859 -0.23828,0.17188 -0.35547,0.26172 -0.11719,0.0859 -0.23437,0.17187 -0.35547,0.25781 -0.11719,0.0859 -0.23437,0.17188 -0.35156,0.25781 -0.23828,0.17188 -0.47656,0.34375 -0.71484,0.51563 -0.23438,0.17187 -0.47657,0.33984 -0.71485,0.51172 -1.91406,1.35937 -3.86719,2.68359 -5.86719,3.96094 -2,1.27734 -4.03906,2.5039 -6.125,3.67578 -2.08593,1.16797 -4.21875,2.27734 -6.39453,3.30859 -1.89062,0.89453 -3.80078,1.72656 -5.73046,2.48438 -1.92969,0.75781 -3.87891,1.4414 -5.84375,2.04296 -1.96485,0.60157 -3.94532,1.1211 -5.9336,1.54688 -1.99219,0.42969 -3.99219,0.75781 -5.99219,0.99609 -1,0.11328 -2,0.20703 -3,0.27344 -0.25,0.0156 -0.5,0.0312 -0.75,0.0469 -0.25,0.0117 -0.5,0.0234 -0.75,0.0352 -0.5,0.0195 -0.99609,0.0312 -1.49609,0.0391 -1.98437,0.0195 -3.960938,-0.0898 -5.890625,-0.38671 -1.929687,-0.30079 -3.8125,-0.79688 -5.578125,-1.54297 -0.05469,-0.0234 -0.109375,-0.0469 -0.164062,-0.0703 l -0.164063,-0.0742 c -0.109375,-0.0469 -0.21875,-0.0937 -0.328125,-0.14844 -0.105469,-0.0508 -0.214844,-0.10156 -0.320312,-0.15235 l -0.320313,-0.16015 c -0.105469,-0.0547 -0.210937,-0.11328 -0.316406,-0.16797 l -0.15625,-0.0859 c -0.05469,-0.0273 -0.105469,-0.0586 -0.15625,-0.0859 l -0.304688,-0.17968 -0.304687,-0.1836 c -0.398438,-0.2539 -0.785156,-0.51953 -1.15625,-0.80859 L 86.886719,197.80078 86.75,197.6875 86.613281,197.57812 c -0.04687,-0.0391 -0.09375,-0.0742 -0.136719,-0.11328 l -0.265624,-0.23047 c -0.04688,-0.0391 -0.08594,-0.0781 -0.128907,-0.11718 l -0.132812,-0.1211 c -0.339844,-0.32031 -0.671875,-0.65234 -0.976563,-1.0039 -0.03906,-0.0469 -0.08203,-0.0898 -0.117187,-0.13282 l -0.113281,-0.13281 -0.113282,-0.13672 -0.05469,-0.0664 -0.05469,-0.0703 -0.21875,-0.27343 -0.207031,-0.28125 c -0.07031,-0.0937 -0.136719,-0.19141 -0.203125,-0.28516 -0.06641,-0.0977 -0.132813,-0.19141 -0.195313,-0.28906 -0.0625,-0.10156 -0.125,-0.19531 -0.1875,-0.29688 -0.0625,-0.0977 -0.121093,-0.19922 -0.183593,-0.29687 -0.234375,-0.40235 -0.453125,-0.8125 -0.652344,-1.23438 -0.792969,-1.67968 -1.269531,-3.5039 -1.421875,-5.33984 -0.15625,-1.83594 0.01172,-3.69141 0.480469,-5.45313 0.46875,-1.76562 1.242187,-3.4375 2.269531,-4.92187 1.027344,-1.48438 2.3125,-2.77734 3.757812,-3.82422 l 0.07031,-0.0469 0.06641,-0.0508 0.140625,-0.0937 c 0.08984,-0.0625 0.183594,-0.125 0.273438,-0.1875 0.09766,-0.0586 0.191406,-0.11718 0.285156,-0.17968 l 0.140625,-0.0898 c 0.04687,-0.0273 0.09766,-0.0547 0.144531,-0.082 0.191406,-0.11328 0.382813,-0.23047 0.578125,-0.33203 0.101563,-0.0508 0.199219,-0.10547 0.296875,-0.16016 0.09766,-0.0469 0.199219,-0.0977 0.296875,-0.14453 0.199219,-0.10156 0.402344,-0.1914 0.605469,-0.28515 0.09766,-0.0469 0.203125,-0.0859 0.304688,-0.12891 0.101562,-0.043 0.203124,-0.0859 0.308593,-0.12891 0.101563,-0.0391 0.207031,-0.0781 0.308594,-0.11718 l 0.15625,-0.0586 0.07813,-0.0312 0.07813,-0.0234 c 0.105469,-0.0352 0.210937,-0.0703 0.316406,-0.10938 0.05078,-0.0156 0.101563,-0.0352 0.15625,-0.0508 l 0.160157,-0.0469 c 0.84375,-0.26171 1.707031,-0.45703 2.578124,-0.58984 0.867188,-0.125 1.746094,-0.19141 2.617188,-0.19141 0.21875,-0.004 0.4375,0.008 0.65625,0.0117 0.109375,0 0.21875,0.008 0.328125,0.0156 0.109375,0.008 0.214844,0.0117 0.324219,0.0195 0.109375,0.008 0.21875,0.0195 0.324218,0.0312 l 0.164063,0.0117 c 0.05469,0.008 0.109375,0.0117 0.164063,0.0195 0.105468,0.0117 0.214843,0.0273 0.320312,0.0391 l 0.16406,0.0195 c 0.0547,0.008 0.10547,0.0156 0.16016,0.0234 0.85937,0.12891 1.70312,0.32422 2.52734,0.57813 -1.79297,-0.6211 -3.714841,-0.94532 -5.667966,-0.94532 -0.121094,0 -0.246094,0.004 -0.367188,0.004 -0.121094,0 -0.242187,0.008 -0.367187,0.0117 -0.242188,0.008 -0.488281,0.0273 -0.734375,0.043 -0.03125,0.004 -0.05859,0.004 -0.08984,0.008 l -0.09375,0.0117 -0.183594,0.0156 -0.183594,0.0195 -0.08984,0.0117 -0.09375,0.0117 c -0.242188,0.0312 -0.488281,0.0625 -0.730469,0.10547 l -0.183594,0.0312 -0.08984,0.0156 -0.09375,0.0156 c -0.121093,0.0273 -0.242187,0.0508 -0.363281,0.0742 -0.0625,0.0156 -0.121093,0.0234 -0.183593,0.0391 l -0.179688,0.043 c -0.121094,0.0273 -0.242188,0.0586 -0.363281,0.0859 -0.121094,0.0312 -0.242188,0.0664 -0.359375,0.0977 l -0.183594,0.0508 -0.179688,0.0547 c -0.117187,0.0352 -0.238281,0.0742 -0.355468,0.10938 -0.121094,0.0391 -0.238282,0.082 -0.355469,0.12109 l -0.179687,0.0625 c -0.05859,0.0195 -0.117188,0.043 -0.175782,0.0664 -0.117187,0.043 -0.234375,0.0859 -0.351562,0.13281 -0.117188,0.0469 -0.230469,0.0977 -0.347656,0.14453 l -0.175782,0.0742 -0.171875,0.0781 c -0.113281,0.0508 -0.226562,0.10546 -0.34375,0.16015 -0.05859,0.0234 -0.113281,0.0547 -0.167969,0.082 l -0.171874,0.0859 c -0.226563,0.10938 -0.445313,0.23438 -0.667969,0.35938 -0.05859,0.0273 -0.113281,0.0625 -0.167969,0.0937 l -0.160156,0.0977 -0.164063,0.0977 c -0.02734,0.0156 -0.05859,0.0312 -0.08203,0.0508 l -0.08203,0.0508 c -0.105469,0.0703 -0.214844,0.13672 -0.320313,0.20703 -0.02734,0.0156 -0.05469,0.0352 -0.08203,0.0508 l -0.390625,0.27344 -0.07813,0.0586 L 87,172.91406 c -0.101562,0.0781 -0.203125,0.15625 -0.308594,0.23047 l -0.07422,0.0586 -0.07422,0.0625 -0.148438,0.1211 -0.152343,0.12109 -0.07422,0.0625 c -0.02344,0.0195 -0.04687,0.0391 -0.07422,0.0625 -0.09375,0.082 -0.191406,0.16797 -0.289062,0.25391 -0.09766,0.082 -0.1875,0.17187 -0.285157,0.26172 -0.04687,0.043 -0.09375,0.0859 -0.140625,0.1289 l -0.136718,0.13672 -0.140626,0.13672 -0.06641,0.0664 -0.06641,0.0703 c -0.08984,0.0937 -0.179688,0.1875 -0.269531,0.28125 -0.08594,0.0977 -0.171875,0.19531 -0.257813,0.29297 -0.08984,0.0937 -0.171875,0.19531 -0.253906,0.29297 l -0.125,0.14843 c -0.04297,0.0508 -0.08203,0.10157 -0.125,0.15235 -0.324219,0.40625 -0.628906,0.83203 -0.914062,1.26953 -0.285157,0.4375 -0.554688,0.89062 -0.796876,1.35937 -0.242187,0.46485 -0.464843,0.94532 -0.664062,1.4336 -0.195312,0.49219 -0.371094,0.99219 -0.523438,1.5039 l -0.05469,0.19141 c -0.01953,0.0625 -0.03516,0.12891 -0.05469,0.19141 -0.03125,0.1289 -0.06641,0.25781 -0.09766,0.38672 -0.03125,0.13281 -0.0625,0.26171 -0.08984,0.39062 -0.01563,0.0664 -0.02734,0.13281 -0.04297,0.19531 l -0.03906,0.19922 c -0.101562,0.52735 -0.175781,1.05469 -0.230468,1.59375 -0.05078,0.53516 -0.07422,1.07422 -0.07422,1.61328 0.0039,0.54297 0.02734,1.08203 0.08203,1.625 0.05469,0.53907 0.132812,1.08203 0.242188,1.61719 0.105468,0.53516 0.238281,1.07031 0.402343,1.59375 0.160157,0.52734 0.351563,1.04688 0.5625,1.55469 l 0.08594,0.1914 0.03906,0.0937 c 0.01563,0.0312 0.02734,0.0625 0.04297,0.0977 0.05859,0.125 0.117188,0.25 0.175781,0.375 0.0625,0.125 0.125,0.24609 0.1875,0.37109 0.0625,0.125 0.132813,0.2461 0.195313,0.36719 0.273437,0.48828 0.566406,0.96094 0.886718,1.41797 l 0.121094,0.17188 c 0.04297,0.0586 0.08203,0.11718 0.125,0.17187 0.08594,0.10938 0.167969,0.22266 0.253906,0.33203 0.08984,0.10938 0.175782,0.21875 0.265626,0.32813 0.04297,0.0547 0.08984,0.10937 0.136718,0.16015 l 0.136719,0.16016 c 0.371094,0.42187 0.765625,0.82812 1.179687,1.21094 0.414063,0.38281 0.855469,0.74218 1.308594,1.07812 0.230469,0.17188 0.464844,0.33203 0.699219,0.49219 0.121094,0.0742 0.238281,0.15234 0.359375,0.23047 0.05859,0.0391 0.121094,0.0742 0.183594,0.10937 l 0.183594,0.10938 c 0.488281,0.28906 0.992187,0.55469 1.503906,0.80078 1.027344,0.48828 2.097656,0.88672 3.195312,1.21484 1.09375,0.32813 2.214844,0.57422 3.347656,0.75782 1.128907,0.18359 2.273438,0.30468 3.421876,0.375 1.148442,0.0664 2.300782,0.0859 3.453122,0.0625 0.14453,-0.004 0.28907,-0.004 0.4336,-0.008 0.14453,-0.004 0.28906,-0.0117 0.43359,-0.0156 0.14453,-0.004 0.28906,-0.0117 0.43359,-0.0156 0.14454,-0.008 0.28516,-0.0156 0.42969,-0.0195 0.14453,-0.008 0.28906,-0.0156 0.4336,-0.0234 0.14453,-0.008 0.28906,-0.0195 0.43359,-0.0273 0.14453,-0.008 0.28906,-0.0195 0.43359,-0.0273 0.14453,-0.0117 0.28907,-0.0234 0.4336,-0.0352 1.15625,-0.0898 2.3125,-0.21484 3.46875,-0.375 2.30859,-0.3125 4.61718,-0.75781 6.90625,-1.32031 2.29297,-0.5625 4.5664,-1.2461 6.8125,-2.03125 2.25,-0.78516 4.47656,-1.67578 6.67187,-2.65235 2.19531,-0.97656 4.36328,-2.04687 6.5,-3.1875 2.13672,-1.14453 4.24219,-2.36718 6.32031,-3.65625 1.80078,-1.11328 3.56641,-2.26953 5.30078,-3.46484 0.86329,-0.59375 1.72266,-1.19922 2.57032,-1.80859 0.21484,-0.15235 0.42578,-0.3086 0.63672,-0.46094 l 0.63281,-0.46094 c 0.21094,-0.15625 0.42187,-0.30859 0.6289,-0.46484 0.21094,-0.15625 0.41797,-0.3125 0.62891,-0.46875 0.41797,-0.31641 0.83203,-0.63672 1.24219,-0.95703 0.41015,-0.32032 0.8164,-0.64453 1.22265,-0.97266 0.8086,-0.65625 1.60157,-1.32422 2.38672,-1.99609 0.78516,-0.67578 1.55469,-1.35547 2.32032,-2.04297 0.76562,-0.6875 1.51953,-1.37891 2.26953,-2.07422 1.49609,-1.39063 2.96484,-2.79688 4.41797,-4.19531 1.44921,-1.40235 2.89062,-2.80078 4.32421,-4.1875 1.4336,-1.38282 2.86719,-2.75391 4.30469,-4.10157 1.4375,-1.34375 2.88281,-2.66406 4.34375,-3.94531 1.46094,-1.27734 2.9375,-2.51953 4.44141,-3.71094 1.5039,-1.1914 3.03125,-2.32812 4.59375,-3.39453 1.55859,-1.0664 3.14844,-2.0625 4.77734,-2.97265 0.8125,-0.45313 1.63281,-0.88672 2.46485,-1.29297 l 0.15234,-0.0781 0.15625,-0.0742 c 0.10547,-0.0508 0.21094,-0.0977 0.3125,-0.14843 0.21094,-0.0977 0.41797,-0.19532 0.62891,-0.29297 0.21093,-0.0937 0.41796,-0.1875 0.6289,-0.28125 0.10547,-0.043 0.21094,-0.0898 0.31641,-0.13672 l 0.15625,-0.0664 0.16015,-0.0664 c 0.84766,-0.35547 1.70313,-0.6836 2.5625,-0.98438 0.10547,-0.0391 0.21485,-0.0742 0.32032,-0.10937 0.10937,-0.0352 0.21875,-0.0742 0.32422,-0.10938 0.21875,-0.0703 0.43359,-0.13672 0.64843,-0.20703 0.21875,-0.0664 0.4375,-0.13281 0.65235,-0.19531 0.10937,-0.0312 0.21875,-0.0625 0.32812,-0.0937 l 0.32813,-0.0937 c 1.74218,-0.47656 3.50781,-0.83203 5.27734,-1.0586 1.76953,-0.22656 3.53906,-0.32031 5.29688,-0.30078 1.75781,0.0234 3.5,0.16407 5.21484,0.41016 -1.875,-0.33203 -3.79688,-0.53906 -5.74609,-0.59375"
       fill-opacity="1"
       fill-rule="nonzero"
       id="path12" />
  </g>
  <g
     clip-path="url(#dd5363a22b)"
     id="g18">
    <path
       fill="#007f00"
       d="M 145.550781 118.707031 C 145.101562 118.878906 144.664062 119.0625 144.246094 119.242188 C 144.054688 119.328125 143.875 119.410156 143.703125 119.488281 C 143.539062 119.566406 143.382812 119.640625 143.242188 119.710938 C 143.230469 119.714844 143.222656 119.71875 143.210938 119.726562 C 143.238281 119.71875 143.261719 119.710938 143.285156 119.703125 C 143.53125 119.625 143.789062 119.542969 144.050781 119.457031 C 144.308594 119.371094 144.566406 119.28125 144.828125 119.1875 C 145.320312 119.015625 145.847656 118.824219 146.390625 118.617188 C 146.648438 118.519531 146.898438 118.421875 147.144531 118.328125 L 147.390625 118.230469 C 147.554688 118.164062 147.714844 118.101562 147.871094 118.039062 C 148.292969 117.871094 148.730469 117.695312 149.164062 117.515625 C 149.132812 117.523438 149.101562 117.53125 149.070312 117.542969 C 148.421875 117.726562 147.777344 117.921875 147.160156 118.128906 C 146.875 118.222656 146.59375 118.320312 146.316406 118.417969 C 146.035156 118.519531 145.773438 118.621094 145.550781 118.707031 Z M 140.984375 120.648438 L 141.789062 120.121094 C 141.796875 120.117188 141.988281 119.996094 142.371094 119.785156 C 142.59375 119.664062 142.835938 119.539062 143.09375 119.410156 C 143.238281 119.339844 143.394531 119.265625 143.5625 119.183594 C 143.734375 119.105469 143.917969 119.023438 144.113281 118.9375 C 144.535156 118.753906 144.976562 118.570312 145.429688 118.394531 C 145.652344 118.308594 145.917969 118.207031 146.203125 118.105469 C 146.480469 118.003906 146.769531 117.90625 147.054688 117.8125 C 147.679688 117.605469 148.324219 117.40625 148.980469 117.222656 C 149.703125 117.019531 150.457031 116.828125 151.214844 116.652344 L 151.320312 116.96875 C 151.316406 116.96875 150.953125 117.128906 150.363281 117.378906 C 150.214844 117.441406 150.050781 117.507812 149.875 117.582031 L 149.3125 117.816406 C 148.867188 118 148.425781 118.179688 147.996094 118.351562 C 147.839844 118.414062 147.675781 118.476562 147.515625 118.539062 L 147.269531 118.636719 C 147.019531 118.734375 146.765625 118.832031 146.511719 118.929688 C 145.960938 119.136719 145.433594 119.332031 144.941406 119.503906 C 144.675781 119.597656 144.417969 119.6875 144.15625 119.773438 C 143.890625 119.859375 143.632812 119.945312 143.386719 120.019531 C 142.851562 120.183594 142.359375 120.320312 141.917969 120.425781 Z M 147.359375 121.316406 C 147.253906 121.347656 147.148438 121.375 147.039062 121.40625 C 146.355469 121.597656 145.671875 121.796875 145.003906 122.003906 C 144.375 122.199219 143.742188 122.402344 143.121094 122.613281 C 142.820312 122.714844 142.523438 122.816406 142.234375 122.917969 C 142.089844 122.96875 141.945312 123.019531 141.804688 123.070312 C 141.664062 123.121094 141.523438 123.171875 141.386719 123.222656 C 140.851562 123.421875 140.316406 123.625 139.796875 123.832031 C 139.253906 124.050781 138.78125 124.242188 138.359375 124.425781 C 137.921875 124.613281 137.484375 124.804688 137.0625 124.996094 C 136.859375 125.089844 136.660156 125.183594 136.46875 125.273438 L 135.914062 125.542969 C 135.261719 125.863281 134.632812 126.1875 134.042969 126.511719 C 133.75 126.667969 133.5 126.8125 133.316406 126.921875 C 133.097656 127.046875 132.902344 127.164062 132.730469 127.273438 C 132.699219 127.289062 132.671875 127.304688 132.644531 127.324219 C 133.164062 127.160156 133.714844 126.976562 134.292969 126.773438 C 135.226562 126.445312 136.207031 126.078125 137.203125 125.6875 C 137.449219 125.589844 137.695312 125.492188 137.9375 125.394531 L 138.671875 125.09375 C 139.140625 124.902344 139.632812 124.703125 140.128906 124.492188 C 140.367188 124.390625 140.605469 124.289062 140.839844 124.191406 L 141.542969 123.890625 C 142.007812 123.691406 142.460938 123.496094 142.902344 123.304688 L 144.179688 122.742188 C 144.59375 122.558594 144.988281 122.382812 145.359375 122.21875 C 145.664062 122.082031 145.949219 121.953125 146.222656 121.828125 L 146.414062 121.746094 C 146.746094 121.59375 147.050781 121.457031 147.328125 121.332031 C 147.339844 121.328125 147.351562 121.324219 147.359375 121.316406 Z M 130.761719 128.210938 L 131.503906 127.671875 C 131.515625 127.660156 131.859375 127.414062 132.554688 126.988281 C 132.730469 126.878906 132.929688 126.761719 133.148438 126.632812 C 133.335938 126.523438 133.585938 126.378906 133.878906 126.21875 C 134.476562 125.890625 135.109375 125.5625 135.765625 125.242188 L 136.328125 124.972656 C 136.519531 124.882812 136.71875 124.789062 136.925781 124.695312 C 137.347656 124.5 137.785156 124.308594 138.226562 124.117188 C 138.652344 123.933594 139.125 123.738281 139.675781 123.523438 C 140.195312 123.316406 140.734375 123.109375 141.269531 122.910156 C 141.410156 122.859375 141.546875 122.808594 141.691406 122.757812 C 141.832031 122.707031 141.976562 122.65625 142.125 122.605469 C 142.414062 122.5 142.710938 122.398438 143.015625 122.296875 C 143.640625 122.085938 144.273438 121.878906 144.90625 121.683594 C 145.578125 121.476562 146.265625 121.277344 146.949219 121.085938 C 147.738281 120.863281 148.453125 120.675781 149.140625 120.503906 L 149.25 120.820312 L 148.773438 121.039062 C 148.46875 121.179688 148.023438 121.382812 147.46875 121.636719 C 147.1875 121.761719 146.882812 121.902344 146.550781 122.046875 L 146.363281 122.132812 C 146.085938 122.257812 145.800781 122.386719 145.496094 122.523438 C 145.121094 122.691406 144.726562 122.863281 144.316406 123.046875 L 143.039062 123.609375 C 142.597656 123.800781 142.140625 124 141.675781 124.199219 L 140.972656 124.496094 C 140.734375 124.597656 140.5 124.699219 140.257812 124.800781 C 139.761719 125.007812 139.269531 125.210938 138.800781 125.40625 L 138.0625 125.703125 C 137.820312 125.800781 137.574219 125.898438 137.328125 125.996094 C 136.324219 126.390625 135.339844 126.757812 134.402344 127.089844 C 133.398438 127.441406 132.472656 127.738281 131.648438 127.96875 Z M 110.605469 168.261719 C 110.367188 168.261719 110.148438 168.421875 110.085938 168.664062 C 110.011719 168.949219 110.183594 169.242188 110.472656 169.320312 C 110.609375 169.355469 110.753906 169.335938 110.878906 169.261719 C 111.003906 169.191406 111.09375 169.074219 111.128906 168.933594 L 111.289062 168.976562 L 111.128906 168.933594 C 111.203125 168.648438 111.03125 168.351562 110.742188 168.277344 C 110.699219 168.265625 110.652344 168.261719 110.605469 168.261719 Z M 110.609375 169.671875 C 110.535156 169.671875 110.460938 169.660156 110.386719 169.640625 C 109.921875 169.519531 109.640625 169.042969 109.761719 168.578125 C 109.882812 168.113281 110.363281 167.832031 110.828125 167.953125 C 111.292969 168.074219 111.574219 168.554688 111.453125 169.019531 C 111.394531 169.242188 111.25 169.433594 111.050781 169.550781 C 110.914062 169.628906 110.761719 169.671875 110.609375 169.671875 Z M 165.410156 89.550781 L 165.585938 89.832031 C 164.554688 90.480469 163.773438 90.980469 163.054688 91.460938 C 162.742188 91.664062 162.429688 91.875 162.128906 92.078125 L 160.898438 92.921875 C 160.804688 92.988281 160.710938 93.050781 160.621094 93.117188 C 159.058594 94.214844 157.515625 95.359375 156.035156 96.519531 C 153.230469 98.71875 150.503906 101.089844 147.933594 103.566406 C 146.722656 104.734375 145.519531 105.945312 144.359375 107.175781 L 143.71875 107.855469 C 143.675781 107.902344 143.632812 107.953125 143.585938 108 L 142.683594 108.992188 L 141.867188 109.90625 L 141.074219 110.820312 C 139.007812 113.226562 137.054688 115.703125 135.273438 118.183594 L 134.613281 119.109375 L 133.964844 120.035156 L 133.023438 121.425781 L 132.109375 122.816406 L 131.222656 124.210938 L 130.644531 125.136719 L 129.804688 126.535156 L 129.125 127.695312 C 129.078125 127.777344 129.035156 127.851562 128.992188 127.925781 L 128.203125 129.320312 L 127.441406 130.714844 L 127.019531 131.507812 C 126.910156 131.710938 126.804688 131.910156 126.699219 132.113281 L 125.980469 133.507812 C 125.894531 133.671875 117.28125 149.902344 110.996094 163.265625 L 110.992188 163.277344 L 105.285156 173.390625 C 105.257812 173.433594 105.28125 173.464844 105.300781 173.480469 C 105.320312 173.496094 105.351562 173.507812 105.386719 173.480469 C 107.699219 171.644531 111.964844 169.734375 113.21875 169.191406 C 113.222656 169.1875 113.238281 169.183594 113.238281 169.164062 C 113.242188 169.15625 113.242188 169.136719 113.222656 169.125 C 112.960938 168.90625 112.710938 168.652344 112.480469 168.371094 L 112.101562 168.042969 C 111.507812 167.535156 111.363281 166.671875 111.75 165.996094 L 112.089844 165.414062 C 112.285156 165.074219 112.480469 164.730469 112.675781 164.394531 C 112.679688 164.386719 112.710938 164.332031 112.761719 164.234375 C 115.039062 160.046875 120.445312 150.21875 121.519531 149.347656 C 123.363281 147.855469 125.132812 146.851562 126.839844 145.882812 C 128.117188 145.160156 129.324219 144.476562 130.476562 143.636719 C 133.761719 141.242188 137.453125 137.746094 142.058594 132.660156 C 140.789062 133.136719 139.585938 133.585938 138.503906 133.984375 L 138.054688 134.152344 C 137.355469 134.410156 136.699219 134.652344 136.085938 134.875 L 134.398438 135.488281 C 133.3125 135.882812 132.496094 136.171875 132.003906 136.347656 L 131.144531 136.648438 L 131.027344 136.335938 L 132.355469 135.804688 C 132.792969 135.628906 133.226562 135.453125 133.65625 135.28125 C 134.085938 135.109375 134.507812 134.933594 134.925781 134.761719 L 136.175781 134.25 C 136.9375 133.933594 137.726562 133.605469 138.582031 133.242188 C 139.359375 132.917969 140.136719 132.585938 140.886719 132.265625 C 141.652344 131.933594 142.363281 131.527344 143.050781 131.03125 C 143.207031 130.917969 143.363281 130.800781 143.519531 130.675781 C 143.65625 130.570312 143.816406 130.441406 143.972656 130.308594 C 144.234375 130.089844 144.515625 129.839844 144.824219 129.554688 C 146.242188 128.25 147.566406 126.886719 148.871094 125.382812 C 149.027344 125.210938 149.175781 125.035156 149.324219 124.859375 L 149.628906 124.496094 C 149.675781 124.441406 149.722656 124.386719 149.765625 124.332031 C 150.054688 123.992188 150.347656 123.636719 150.636719 123.273438 C 150.933594 122.90625 151.222656 122.542969 151.496094 122.195312 L 151.925781 121.648438 C 152.070312 121.464844 152.214844 121.28125 152.355469 121.09375 C 152.414062 121.019531 152.472656 120.941406 152.535156 120.863281 L 153.230469 119.96875 C 153.277344 119.910156 153.324219 119.847656 153.375 119.78125 L 155.074219 117.628906 L 156.070312 116.40625 L 156.59375 115.785156 C 156.714844 115.640625 156.835938 115.496094 156.964844 115.351562 L 157.136719 115.148438 C 157.429688 114.804688 157.734375 114.464844 158.054688 114.105469 L 159.003906 113.070312 L 159.527344 112.515625 L 160.433594 111.585938 C 159.929688 111.726562 159.433594 111.859375 158.945312 111.988281 C 158.121094 112.210938 157.449219 112.386719 156.828125 112.546875 C 156.171875 112.714844 155.429688 112.90625 154.695312 113.085938 C 154.339844 113.171875 153.984375 113.257812 153.628906 113.339844 L 152.566406 113.589844 C 151.847656 113.753906 151.136719 113.910156 150.457031 114.050781 C 150.105469 114.125 149.757812 114.191406 149.410156 114.261719 C 149.066406 114.328125 148.71875 114.394531 148.375 114.457031 C 147.675781 114.585938 146.992188 114.699219 146.339844 114.796875 C 146 114.847656 145.664062 114.894531 145.339844 114.9375 C 145.007812 114.980469 144.675781 115.023438 144.359375 115.058594 L 144.296875 114.730469 C 144.296875 114.730469 144.414062 114.699219 144.636719 114.636719 L 144.757812 114.601562 C 144.976562 114.542969 145.265625 114.460938 145.621094 114.359375 C 146.511719 114.101562 147.753906 113.730469 149.214844 113.285156 C 149.589844 113.167969 149.984375 113.046875 150.398438 112.917969 L 150.414062 112.910156 C 150.820312 112.785156 151.246094 112.652344 151.679688 112.515625 C 152.121094 112.375 152.578125 112.226562 153.046875 112.078125 C 153.519531 111.925781 154.003906 111.769531 154.496094 111.609375 L 156.015625 111.109375 C 156.535156 110.941406 157.058594 110.765625 157.59375 110.582031 C 158.628906 110.238281 159.671875 109.882812 160.773438 109.5 L 160.90625 109.457031 C 161.089844 109.394531 161.273438 109.324219 161.453125 109.253906 C 161.542969 109.21875 161.632812 109.183594 161.71875 109.144531 C 161.808594 109.109375 161.898438 109.070312 161.984375 109.03125 C 162.34375 108.875 162.671875 108.710938 162.96875 108.539062 C 163.042969 108.496094 163.117188 108.449219 163.1875 108.40625 C 163.261719 108.359375 163.332031 108.316406 163.402344 108.269531 C 163.542969 108.175781 163.671875 108.082031 163.789062 107.988281 C 163.910156 107.890625 164.023438 107.792969 164.121094 107.695312 C 164.234375 107.582031 164.320312 107.488281 164.390625 107.398438 C 164.53125 107.214844 164.671875 107.039062 164.8125 106.867188 C 164.957031 106.691406 165.097656 106.523438 165.238281 106.355469 C 165.378906 106.191406 165.523438 106.019531 165.667969 105.859375 C 165.8125 105.699219 165.953125 105.539062 166.097656 105.382812 L 166.328125 105.136719 L 166.554688 104.894531 C 166.6875 104.753906 166.820312 104.617188 166.953125 104.480469 L 167.46875 103.96875 C 167.582031 103.851562 167.695312 103.738281 167.8125 103.628906 C 168.902344 102.582031 169.972656 101.640625 171.011719 100.734375 L 171.15625 100.605469 C 172.230469 99.667969 173.28125 98.738281 174.34375 97.730469 C 174.476562 97.605469 174.605469 97.476562 174.734375 97.347656 C 174.871094 97.21875 175 97.09375 175.132812 96.960938 L 175.53125 96.5625 C 175.664062 96.429688 175.796875 96.292969 175.929688 96.152344 C 176.335938 95.734375 176.765625 95.28125 177.226562 94.777344 L 175.011719 95.296875 L 172.390625 95.941406 C 172.210938 95.988281 172.03125 96.035156 171.851562 96.078125 L 171.132812 96.265625 C 170.996094 96.300781 170.859375 96.335938 170.726562 96.371094 C 168.835938 96.863281 166.882812 97.394531 164.921875 97.953125 C 164.78125 97.992188 164.648438 98.027344 164.519531 98.066406 L 163.195312 98.445312 C 163.085938 98.476562 162.980469 98.507812 162.875 98.539062 L 159.550781 99.511719 L 159.449219 99.191406 C 162 98.34375 164.507812 97.527344 166.910156 96.769531 C 169.082031 96.082031 171.230469 95.425781 173.488281 94.765625 C 175.199219 94.261719 176.8125 93.632812 178.277344 92.898438 C 178.453125 92.808594 178.628906 92.71875 178.800781 92.625 C 178.980469 92.53125 179.152344 92.4375 179.308594 92.34375 C 179.390625 92.296875 179.472656 92.25 179.550781 92.203125 C 179.632812 92.152344 179.714844 92.105469 179.796875 92.058594 C 179.949219 91.964844 180.109375 91.863281 180.261719 91.761719 C 180.414062 91.664062 180.566406 91.566406 180.710938 91.460938 C 180.769531 91.421875 180.824219 91.382812 180.878906 91.34375 L 180.929688 91.308594 C 181 91.257812 181.070312 91.207031 181.140625 91.15625 C 181.285156 91.050781 181.421875 90.941406 181.550781 90.839844 C 181.683594 90.734375 181.8125 90.625 181.9375 90.519531 C 182.015625 90.449219 182.097656 90.378906 182.179688 90.3125 L 182.492188 90.042969 C 182.554688 89.988281 182.617188 89.9375 182.675781 89.886719 L 184.125 88.671875 C 184.140625 88.65625 184.15625 88.644531 184.171875 88.628906 L 183.039062 88.996094 L 182.449219 89.191406 C 182.363281 89.21875 182.28125 89.246094 182.199219 89.273438 L 181.574219 89.480469 C 181.503906 89.503906 181.4375 89.527344 181.371094 89.550781 L 180.730469 89.769531 C 180.632812 89.800781 180.539062 89.835938 180.449219 89.867188 L 178.792969 90.445312 C 178.714844 90.472656 178.675781 90.484375 178.671875 90.484375 L 178.535156 90.183594 C 180.757812 88.941406 182.859375 87.792969 184.777344 86.777344 C 186.457031 85.886719 188.140625 85.019531 189.792969 84.199219 L 192.335938 82.34375 L 193.640625 81.429688 C 194 81.179688 194.351562 80.933594 194.699219 80.699219 C 195.375 80.242188 196.066406 79.78125 196.824219 79.289062 C 197.398438 78.914062 198.003906 78.527344 198.660156 78.117188 C 199.15625 77.804688 199.652344 77.5 200.167969 77.183594 C 200.566406 76.941406 200.949219 76.714844 201.296875 76.507812 C 201.535156 76.367188 201.726562 76.253906 201.878906 76.167969 C 201.792969 76.148438 201.703125 76.132812 201.609375 76.117188 C 200.96875 76.003906 200.230469 75.914062 199.402344 75.84375 C 198.210938 75.746094 196.898438 75.699219 195.5 75.703125 C 193.71875 75.714844 191.808594 75.8125 189.828125 75.996094 C 189.601562 76.050781 189.375 76.113281 189.144531 76.175781 L 188.976562 76.21875 C 188.871094 76.25 188.765625 76.277344 188.660156 76.308594 L 188.074219 76.472656 C 187.351562 76.675781 186.753906 76.855469 186.183594 77.035156 C 184.800781 77.46875 183.460938 77.929688 182.191406 78.414062 C 180.796875 78.945312 179.457031 79.507812 178.207031 80.089844 C 176.898438 80.703125 175.667969 81.339844 174.558594 81.988281 L 174.386719 81.703125 L 175.4375 81.09375 L 176.210938 80.65625 C 176.355469 80.574219 176.511719 80.492188 176.671875 80.402344 L 176.949219 80.25 C 177.023438 80.210938 177.101562 80.167969 177.179688 80.125 L 177.539062 79.933594 C 178.6875 79.324219 179.878906 78.726562 181.085938 78.152344 C 181.171875 78.113281 181.257812 78.070312 181.34375 78.03125 L 181.867188 77.789062 C 181.957031 77.746094 182.046875 77.703125 182.136719 77.664062 L 182.679688 77.417969 C 182.773438 77.375 182.867188 77.332031 182.960938 77.292969 L 183.242188 77.167969 C 183.554688 77.027344 183.878906 76.890625 184.207031 76.75 L 184.324219 76.699219 C 184.148438 76.726562 183.972656 76.753906 183.792969 76.785156 L 183.300781 76.867188 C 183.214844 76.882812 183.125 76.898438 183.039062 76.914062 L 182.953125 76.929688 C 182.71875 76.972656 182.480469 77.011719 182.238281 77.058594 C 182 77.101562 181.757812 77.148438 181.515625 77.195312 C 181.28125 77.238281 181.046875 77.285156 180.8125 77.332031 L 180.035156 77.492188 C 179.785156 77.542969 179.53125 77.597656 179.277344 77.652344 C 179.066406 77.695312 178.851562 77.746094 178.636719 77.792969 L 177.625 78.023438 C 177.398438 78.078125 177.171875 78.132812 176.945312 78.183594 C 175.890625 78.441406 174.800781 78.722656 173.707031 79.023438 C 173.429688 79.097656 173.152344 79.175781 172.875 79.257812 L 172.757812 79.289062 C 172.65625 79.316406 172.554688 79.347656 172.453125 79.375 L 171.609375 79.625 C 171.46875 79.664062 171.328125 79.707031 171.1875 79.75 C 170.902344 79.835938 170.617188 79.925781 170.332031 80.011719 C 170.203125 80.050781 170.078125 80.089844 169.953125 80.128906 L 169.035156 80.421875 C 168.929688 80.457031 168.820312 80.492188 168.710938 80.53125 L 168.601562 80.566406 C 168.3125 80.660156 168.019531 80.757812 167.726562 80.855469 C 167.4375 80.957031 167.144531 81.054688 166.847656 81.160156 C 165.5625 81.605469 164.394531 82.035156 163.285156 82.464844 L 161.808594 83.046875 C 161.699219 83.089844 161.589844 83.136719 161.480469 83.179688 C 161.179688 83.300781 160.878906 83.425781 160.574219 83.554688 L 159.667969 83.933594 C 158.03125 84.632812 156.542969 85.433594 155.234375 86.316406 C 153.933594 87.195312 152.878906 88.105469 152.105469 89.023438 C 151.152344 90.148438 150.304688 91.296875 149.585938 92.441406 C 149.4375 92.664062 149.308594 92.886719 149.183594 93.097656 L 148.933594 93.527344 C 148.902344 93.582031 148.871094 93.636719 148.839844 93.695312 L 148.75 93.859375 C 148.632812 94.078125 148.523438 94.289062 148.417969 94.492188 C 148.320312 94.6875 148.234375 94.875 148.148438 95.054688 L 148.128906 95.097656 C 148.050781 95.265625 147.976562 95.425781 147.914062 95.574219 C 147.84375 95.734375 147.78125 95.886719 147.726562 96.027344 C 147.667969 96.167969 147.617188 96.296875 147.574219 96.414062 C 147.539062 96.507812 147.507812 96.589844 147.484375 96.667969 L 147.460938 96.738281 C 147.332031 97.117188 147.273438 97.324219 147.273438 97.324219 L 147.097656 97.976562 L 146.949219 97.316406 C 146.882812 97.023438 146.835938 96.710938 146.808594 96.386719 C 146.789062 96.074219 146.789062 95.75 146.808594 95.394531 C 146.816406 95.21875 146.839844 95.042969 146.859375 94.875 C 146.882812 94.703125 146.910156 94.527344 146.941406 94.347656 C 146.976562 94.15625 147.019531 93.96875 147.058594 93.808594 C 147.101562 93.628906 147.152344 93.441406 147.207031 93.257812 C 147.59375 91.945312 148.257812 90.535156 149.183594 89.058594 C 149.070312 89.117188 148.960938 89.171875 148.851562 89.230469 C 148.5625 89.378906 148.277344 89.527344 147.992188 89.679688 L 147.566406 89.90625 C 147.464844 89.964844 147.363281 90.019531 147.261719 90.074219 L 147.152344 90.136719 C 146.875 90.289062 146.597656 90.441406 146.324219 90.597656 C 146.1875 90.671875 146.054688 90.75 145.921875 90.828125 L 145.074219 91.320312 C 144.957031 91.390625 144.839844 91.457031 144.726562 91.527344 C 144.46875 91.683594 144.210938 91.84375 143.953125 92 L 143.195312 92.476562 C 141.246094 93.71875 139.414062 95.019531 137.59375 96.449219 C 137.488281 96.53125 137.386719 96.613281 137.285156 96.691406 L 136.945312 96.96875 C 136.730469 97.140625 136.515625 97.3125 136.300781 97.488281 C 136.09375 97.664062 135.882812 97.839844 135.675781 98.015625 L 135.359375 98.28125 C 135.253906 98.367188 135.152344 98.457031 135.050781 98.546875 L 134.128906 99.355469 C 134.058594 99.414062 133.992188 99.476562 133.925781 99.539062 L 133.132812 100.257812 C 133.0625 100.320312 132.992188 100.386719 132.925781 100.449219 L 132.632812 100.722656 C 131.113281 102.144531 129.601562 103.667969 128.007812 105.371094 L 127.984375 105.398438 C 126.332031 107.167969 125.265625 109.007812 124.902344 110.722656 C 124.558594 112.351562 124.414062 113.964844 124.480469 115.515625 C 124.515625 116.132812 124.5625 116.558594 124.597656 116.8125 C 124.640625 117.101562 124.675781 117.257812 124.675781 117.257812 L 124.820312 117.933594 L 124.382812 117.398438 C 124.21875 117.199219 124.066406 116.996094 123.933594 116.800781 C 123.800781 116.597656 123.667969 116.386719 123.546875 116.167969 C 123.429688 115.953125 123.316406 115.726562 123.210938 115.5 C 123.117188 115.289062 123.027344 115.058594 122.933594 114.796875 C 122.847656 114.558594 122.769531 114.3125 122.699219 114.066406 C 122.636719 113.816406 122.578125 113.5625 122.527344 113.304688 C 122.5 113.175781 122.476562 113.046875 122.457031 112.917969 L 122.398438 112.519531 C 122.382812 112.390625 122.371094 112.257812 122.359375 112.125 L 122.117188 112.410156 C 121.972656 112.582031 121.832031 112.75 121.699219 112.917969 C 121.410156 113.277344 121.132812 113.621094 120.863281 113.960938 C 120.601562 114.296875 120.351562 114.625 120.109375 114.941406 L 119.757812 115.410156 L 119.425781 115.863281 C 118.976562 116.476562 118.582031 117.0625 118.246094 117.558594 L 117.988281 117.953125 L 117.742188 118.335938 C 117.585938 118.585938 117.433594 118.832031 117.285156 119.070312 C 117.007812 119.539062 116.746094 119.996094 116.511719 120.433594 C 116.289062 120.851562 116.078125 121.269531 115.886719 121.671875 C 115.511719 122.484375 115.214844 123.21875 114.984375 123.914062 C 114.921875 124.09375 114.863281 124.273438 114.808594 124.449219 C 114.777344 124.539062 114.753906 124.625 114.726562 124.714844 L 114.652344 124.980469 C 114.535156 125.390625 114.445312 125.730469 114.367188 126.050781 C 114.292969 126.375 114.210938 126.726562 114.117188 127.15625 L 114 127.726562 L 113.765625 128.9375 L 113.523438 130.253906 C 113.507812 130.335938 113.492188 130.414062 113.480469 130.492188 L 113.398438 130.960938 L 112.804688 134.199219 C 112.777344 134.355469 112.757812 134.511719 112.746094 134.667969 C 112.742188 134.746094 112.738281 134.820312 112.738281 134.894531 C 112.738281 134.96875 112.742188 135.042969 112.746094 135.117188 C 112.765625 135.40625 112.820312 135.699219 112.90625 135.984375 C 112.949219 136.128906 113 136.265625 113.050781 136.394531 C 113.109375 136.527344 113.175781 136.664062 113.246094 136.792969 C 113.382812 137.050781 113.550781 137.304688 113.742188 137.550781 C 113.941406 137.816406 114.167969 138.097656 114.472656 138.464844 C 114.730469 138.773438 114.996094 139.082031 115.261719 139.386719 C 115.519531 139.671875 115.800781 139.972656 116.117188 140.308594 C 116.265625 140.460938 116.414062 140.613281 116.566406 140.769531 L 117.035156 141.230469 L 116.8125 141.480469 L 116.695312 141.390625 C 116.640625 141.34375 116.5625 141.28125 116.464844 141.207031 C 116.167969 140.960938 115.847656 140.691406 115.519531 140.40625 C 115.304688 140.21875 115.082031 140.023438 114.863281 139.824219 L 114.496094 139.488281 L 114.109375 139.125 C 113.832031 138.859375 113.550781 138.589844 113.277344 138.316406 L 112.835938 137.871094 C 112.785156 137.820312 112.738281 137.769531 112.6875 137.71875 C 112.792969 140.125 113.296875 142.175781 114.191406 143.828125 C 114.246094 143.933594 114.304688 144.035156 114.363281 144.136719 C 114.429688 144.25 114.488281 144.34375 114.546875 144.429688 C 114.671875 144.625 114.804688 144.8125 114.941406 144.988281 L 114.953125 145.003906 C 116.027344 146.40625 116.667969 146.949219 117.039062 147.144531 C 119.367188 142.972656 121.117188 139.503906 121.132812 139.46875 C 121.203125 139.320312 121.773438 138.128906 121.800781 138.078125 L 122.71875 136.21875 L 123.433594 134.824219 L 124.425781 132.964844 L 124.675781 132.5 C 124.941406 132.015625 125.21875 131.519531 125.488281 131.042969 L 125.980469 130.175781 L 126.796875 128.785156 L 127.636719 127.390625 L 128.257812 126.382812 C 128.289062 126.332031 128.320312 126.28125 128.351562 126.230469 L 129.089844 125.074219 C 129.15625 124.964844 129.226562 124.859375 129.296875 124.753906 L 129.996094 123.683594 C 130.0625 123.582031 130.128906 123.480469 130.195312 123.382812 L 130.929688 122.292969 L 131.574219 121.367188 C 131.726562 121.140625 131.890625 120.910156 132.050781 120.6875 L 132.390625 120.210938 C 132.550781 119.980469 132.71875 119.746094 132.890625 119.515625 L 133.566406 118.59375 L 134.257812 117.671875 C 135.25 116.367188 136.199219 115.164062 137.164062 113.992188 C 138.195312 112.746094 139.253906 111.515625 140.3125 110.335938 C 142.53125 107.863281 144.917969 105.4375 147.402344 103.128906 C 148.699219 101.925781 150.042969 100.738281 151.394531 99.601562 C 152.828125 98.390625 154.28125 97.230469 155.710938 96.144531 C 157.21875 94.996094 158.789062 93.867188 160.375 92.785156 C 160.503906 92.695312 160.636719 92.605469 160.769531 92.519531 L 161.855469 91.792969 C 162.179688 91.582031 162.511719 91.363281 162.847656 91.148438 C 163.574219 90.679688 164.386719 90.171875 165.410156 89.550781 Z M 105.34375 173.832031 C 105.25 173.832031 105.160156 173.796875 105.082031 173.730469 C 104.933594 173.605469 104.898438 173.398438 104.992188 173.226562 L 110.695312 163.117188 C 116.984375 149.746094 125.597656 133.515625 125.683594 133.355469 L 126.402344 131.957031 C 126.507812 131.753906 126.617188 131.554688 126.722656 131.351562 L 127.398438 130.09375 L 128.171875 128.691406 L 128.703125 127.761719 C 128.742188 127.6875 128.789062 127.609375 128.832031 127.535156 L 129.519531 126.363281 L 130.359375 124.964844 L 131.230469 123.566406 L 132.128906 122.167969 L 133.058594 120.773438 L 133.6875 119.847656 L 134.667969 118.453125 L 135 117.988281 C 136.789062 115.5 138.746094 113.015625 140.820312 110.601562 L 141.617188 109.683594 L 142.847656 108.3125 L 143.339844 107.777344 C 143.382812 107.726562 143.429688 107.675781 143.476562 107.628906 L 144.117188 106.945312 C 145.28125 105.714844 146.484375 104.496094 147.699219 103.328125 C 147.863281 103.167969 148.027344 103.011719 148.191406 102.855469 C 148.003906 103.027344 147.816406 103.199219 147.632812 103.375 C 145.152344 105.671875 142.773438 108.09375 140.5625 110.558594 C 139.507812 111.734375 138.449219 112.960938 137.421875 114.203125 C 136.460938 115.371094 135.515625 116.570312 134.527344 117.871094 L 133.835938 118.792969 L 133.160156 119.714844 C 132.992188 119.941406 132.824219 120.175781 132.664062 120.402344 L 132.320312 120.882812 C 132.164062 121.101562 132 121.332031 131.847656 121.554688 L 131.207031 122.480469 L 130.476562 123.566406 C 130.40625 123.667969 130.339844 123.765625 130.277344 123.863281 L 129.574219 124.9375 C 129.507812 125.039062 129.4375 125.144531 129.371094 125.25 L 128.636719 126.410156 C 128.605469 126.457031 128.574219 126.507812 128.542969 126.558594 L 127.640625 128.027344 L 126.8125 129.417969 L 126.007812 130.808594 L 125.78125 131.207031 C 125.511719 131.683594 125.234375 132.175781 124.972656 132.660156 L 124.46875 133.585938 L 123.730469 134.980469 L 123.015625 136.371094 L 122.097656 138.222656 C 122.09375 138.234375 121.503906 139.460938 121.433594 139.613281 C 121.414062 139.652344 119.625 143.203125 117.253906 147.445312 L 117.183594 147.570312 L 117.046875 147.519531 C 116.496094 147.308594 115.703125 146.53125 114.6875 145.207031 L 114.675781 145.191406 C 114.535156 145.007812 114.394531 144.8125 114.265625 144.613281 C 114.207031 144.523438 114.144531 144.425781 114.074219 144.304688 C 114.015625 144.199219 113.953125 144.09375 113.894531 143.984375 C 112.921875 142.191406 112.398438 139.9375 112.339844 137.289062 L 112.328125 136.851562 L 112.628906 137.167969 C 112.777344 137.328125 112.929688 137.484375 113.074219 137.636719 L 113.511719 138.082031 C 113.785156 138.351562 114.0625 138.621094 114.339844 138.882812 L 114.574219 139.105469 C 114.453125 138.964844 114.332031 138.820312 114.214844 138.679688 C 113.90625 138.308594 113.679688 138.023438 113.476562 137.753906 C 113.273438 137.492188 113.097656 137.222656 112.953125 136.953125 C 112.875 136.8125 112.804688 136.667969 112.746094 136.527344 C 112.683594 136.382812 112.632812 136.234375 112.585938 136.078125 C 112.492188 135.769531 112.433594 135.453125 112.414062 135.140625 C 112.40625 135.058594 112.40625 134.980469 112.402344 134.898438 C 112.402344 134.816406 112.40625 134.734375 112.414062 134.644531 C 112.425781 134.480469 112.445312 134.308594 112.476562 134.140625 L 113.152344 130.433594 C 113.164062 130.351562 113.179688 130.273438 113.195312 130.191406 L 113.792969 127.085938 C 113.886719 126.65625 113.964844 126.300781 114.042969 125.972656 C 114.121094 125.648438 114.214844 125.304688 114.328125 124.890625 L 114.40625 124.621094 C 114.433594 124.53125 114.457031 124.441406 114.488281 124.347656 C 114.546875 124.167969 114.605469 123.988281 114.667969 123.808594 C 114.902344 123.101562 115.203125 122.355469 115.585938 121.53125 C 115.777344 121.121094 115.992188 120.699219 116.214844 120.273438 C 116.457031 119.832031 116.71875 119.371094 117 118.898438 C 117.148438 118.65625 117.300781 118.410156 117.460938 118.15625 L 117.964844 117.378906 C 118.304688 116.871094 118.703125 116.285156 119.15625 115.667969 L 119.84375 114.738281 C 120.085938 114.421875 120.339844 114.09375 120.601562 113.753906 C 120.871094 113.414062 121.148438 113.066406 121.441406 112.707031 C 121.574219 112.539062 121.714844 112.371094 121.859375 112.199219 L 122.628906 111.277344 L 122.660156 111.691406 C 122.675781 111.960938 122.703125 112.226562 122.730469 112.480469 L 122.785156 112.863281 C 122.808594 112.988281 122.832031 113.113281 122.855469 113.238281 C 122.90625 113.492188 122.960938 113.738281 123.023438 113.976562 C 123.089844 114.214844 123.164062 114.453125 123.246094 114.683594 C 123.339844 114.9375 123.425781 115.160156 123.515625 115.359375 C 123.617188 115.582031 123.726562 115.796875 123.839844 116.003906 C 123.957031 116.214844 124.082031 116.421875 124.210938 116.613281 C 124.222656 116.628906 124.230469 116.644531 124.242188 116.65625 C 124.210938 116.390625 124.175781 116.019531 124.148438 115.53125 C 124.082031 113.949219 124.222656 112.308594 124.574219 110.652344 C 124.949219 108.878906 126.046875 106.984375 127.738281 105.171875 L 127.765625 105.144531 C 129.363281 103.433594 130.878906 101.910156 132.398438 100.484375 L 132.695312 100.203125 C 132.765625 100.140625 132.835938 100.078125 132.90625 100.011719 L 133.699219 99.289062 C 133.765625 99.226562 133.835938 99.164062 133.90625 99.101562 L 134.828125 98.292969 C 134.933594 98.203125 135.039062 98.117188 135.144531 98.027344 L 135.457031 97.761719 C 135.667969 97.582031 135.878906 97.40625 136.089844 97.230469 C 136.304688 97.054688 136.519531 96.882812 136.734375 96.707031 L 137.078125 96.433594 C 137.179688 96.351562 137.28125 96.269531 137.386719 96.1875 C 139.214844 94.75 141.058594 93.445312 143.011719 92.195312 L 143.777344 91.71875 C 144.035156 91.558594 144.292969 91.398438 144.554688 91.242188 C 144.667969 91.171875 144.785156 91.101562 144.902344 91.035156 L 145.753906 90.539062 C 145.886719 90.460938 146.023438 90.382812 146.160156 90.304688 C 146.433594 90.152344 146.710938 89.996094 146.988281 89.84375 L 147.097656 89.78125 C 147.203125 89.726562 147.304688 89.667969 147.410156 89.613281 L 147.835938 89.386719 C 148.121094 89.234375 148.40625 89.082031 148.695312 88.933594 C 148.992188 88.78125 149.285156 88.632812 149.582031 88.484375 L 150.144531 88.203125 L 149.796875 88.726562 C 148.710938 90.359375 147.949219 91.917969 147.527344 93.347656 C 147.476562 93.53125 147.425781 93.710938 147.382812 93.886719 C 147.347656 94.042969 147.304688 94.222656 147.273438 94.40625 C 147.238281 94.582031 147.214844 94.753906 147.191406 94.921875 C 147.171875 95.078125 147.152344 95.25 147.144531 95.414062 C 147.121094 95.757812 147.121094 96.066406 147.144531 96.363281 C 147.148438 96.433594 147.15625 96.5 147.164062 96.570312 L 147.167969 96.5625 C 147.195312 96.480469 147.222656 96.390625 147.261719 96.296875 C 147.304688 96.175781 147.359375 96.042969 147.414062 95.902344 C 147.472656 95.761719 147.535156 95.605469 147.605469 95.445312 C 147.671875 95.289062 147.746094 95.128906 147.824219 94.957031 L 147.839844 94.921875 C 147.929688 94.730469 148.019531 94.539062 148.121094 94.339844 C 148.226562 94.136719 148.335938 93.921875 148.457031 93.703125 L 148.546875 93.535156 C 148.578125 93.476562 148.609375 93.417969 148.644531 93.359375 L 148.894531 92.929688 C 149.023438 92.714844 149.152344 92.492188 149.304688 92.261719 C 150.03125 91.105469 150.886719 89.945312 151.847656 88.808594 C 152.644531 87.867188 153.71875 86.933594 155.046875 86.039062 C 156.371094 85.144531 157.882812 84.332031 159.535156 83.628906 L 160.445312 83.242188 C 160.75 83.117188 161.050781 82.992188 161.355469 82.871094 C 161.460938 82.824219 161.574219 82.78125 161.683594 82.738281 L 162.710938 82.328125 L 163.164062 82.152344 C 164.277344 81.722656 165.445312 81.292969 166.738281 80.84375 C 167.035156 80.742188 167.328125 80.640625 167.621094 80.539062 C 167.914062 80.441406 168.207031 80.34375 168.496094 80.25 L 168.605469 80.210938 C 168.714844 80.175781 168.824219 80.140625 168.933594 80.105469 L 169.851562 79.8125 C 169.980469 79.773438 170.105469 79.730469 170.234375 79.691406 C 170.519531 79.605469 170.804688 79.515625 171.089844 79.429688 C 171.230469 79.386719 171.375 79.34375 171.515625 79.304688 L 172.359375 79.054688 C 172.460938 79.027344 172.566406 78.996094 172.667969 78.96875 L 172.78125 78.933594 C 173.0625 78.855469 173.339844 78.777344 173.617188 78.699219 C 174.714844 78.398438 175.808594 78.117188 176.867188 77.859375 C 177.097656 77.804688 177.324219 77.753906 177.546875 77.699219 L 178.5625 77.46875 C 178.78125 77.417969 178.992188 77.371094 179.207031 77.324219 C 179.464844 77.269531 179.714844 77.214844 179.964844 77.164062 L 180.746094 77.003906 C 180.984375 76.957031 181.21875 76.910156 181.453125 76.867188 C 181.695312 76.820312 181.9375 76.773438 182.179688 76.730469 C 182.417969 76.683594 182.65625 76.640625 182.894531 76.601562 L 182.980469 76.585938 C 183.066406 76.570312 183.15625 76.554688 183.246094 76.539062 L 183.738281 76.457031 C 183.921875 76.425781 184.105469 76.394531 184.285156 76.367188 C 184.515625 76.328125 184.742188 76.292969 184.964844 76.257812 C 185.078125 76.242188 185.1875 76.226562 185.300781 76.207031 L 187.011719 75.957031 L 185.71875 76.480469 C 185.347656 76.628906 184.980469 76.785156 184.625 76.933594 L 184.339844 77.054688 C 184.011719 77.195312 183.691406 77.332031 183.378906 77.472656 L 183.09375 77.597656 C 183.003906 77.640625 182.910156 77.679688 182.820312 77.71875 L 182.273438 77.96875 C 182.1875 78.007812 182.097656 78.046875 182.007812 78.089844 L 181.542969 78.308594 C 181.71875 78.238281 181.894531 78.171875 182.074219 78.101562 C 183.347656 77.617188 184.695312 77.152344 186.082031 76.71875 C 186.65625 76.535156 187.257812 76.355469 187.980469 76.148438 L 188.570312 75.984375 C 188.675781 75.957031 188.78125 75.925781 188.886719 75.898438 L 189.058594 75.851562 C 189.296875 75.789062 189.527344 75.726562 189.757812 75.667969 L 189.785156 75.664062 C 191.777344 75.476562 193.703125 75.378906 195.5 75.371094 C 196.90625 75.363281 198.230469 75.410156 199.429688 75.511719 C 200.265625 75.582031 201.019531 75.675781 201.667969 75.789062 C 201.855469 75.820312 202.03125 75.855469 202.199219 75.894531 C 202.25 75.90625 202.292969 75.914062 202.320312 75.921875 L 202.371094 75.933594 L 202.773438 76.035156 L 202.175781 76.382812 C 202.011719 76.476562 201.777344 76.613281 201.46875 76.792969 C 201.117188 77 200.742188 77.230469 200.34375 77.46875 C 199.824219 77.785156 199.335938 78.085938 198.839844 78.398438 C 198.183594 78.808594 197.582031 79.195312 197.003906 79.570312 C 196.253906 80.058594 195.558594 80.519531 194.886719 80.976562 C 194.542969 81.210938 194.191406 81.453125 193.828125 81.703125 L 191.910156 83.058594 L 189.953125 84.492188 C 188.304688 85.3125 186.613281 86.179688 184.933594 87.070312 C 183.515625 87.824219 181.992188 88.648438 180.398438 89.53125 C 180.46875 89.503906 180.546875 89.480469 180.625 89.453125 L 181.261719 89.234375 C 181.328125 89.210938 181.398438 89.1875 181.46875 89.164062 L 182.09375 88.957031 C 182.175781 88.929688 182.257812 88.898438 182.34375 88.871094 L 184.894531 88.050781 L 185.730469 87.796875 L 185.050781 88.34375 C 184.972656 88.402344 184.898438 88.464844 184.824219 88.527344 L 184.515625 88.78125 C 184.457031 88.828125 184.398438 88.875 184.339844 88.925781 L 182.890625 90.140625 C 182.832031 90.191406 182.769531 90.242188 182.710938 90.296875 L 182.394531 90.566406 C 182.316406 90.632812 182.234375 90.699219 182.15625 90.769531 C 182.027344 90.882812 181.894531 90.992188 181.757812 91.101562 C 181.628906 91.203125 181.484375 91.316406 181.339844 91.421875 C 181.269531 91.476562 181.195312 91.527344 181.121094 91.578125 L 181.074219 91.617188 C 181.015625 91.65625 180.960938 91.695312 180.902344 91.734375 C 180.753906 91.839844 180.597656 91.945312 180.445312 92.042969 C 180.289062 92.144531 180.128906 92.246094 179.96875 92.34375 C 179.886719 92.394531 179.804688 92.441406 179.722656 92.488281 C 179.640625 92.539062 179.558594 92.585938 179.472656 92.632812 C 179.3125 92.726562 179.140625 92.824219 178.957031 92.917969 C 178.785156 93.015625 178.605469 93.105469 178.429688 93.195312 C 176.945312 93.941406 175.316406 94.574219 173.582031 95.085938 C 171.894531 95.582031 170.269531 96.070312 168.648438 96.574219 C 169.316406 96.394531 169.984375 96.21875 170.640625 96.046875 C 170.773438 96.011719 170.914062 95.976562 171.050781 95.941406 L 171.769531 95.757812 C 171.949219 95.710938 172.128906 95.664062 172.308594 95.617188 L 174.933594 94.96875 L 177.355469 94.402344 C 177.460938 94.378906 177.566406 94.355469 177.671875 94.332031 L 178.179688 94.222656 L 177.832031 94.609375 C 177.226562 95.273438 176.683594 95.855469 176.167969 96.386719 C 176.035156 96.523438 175.902344 96.664062 175.769531 96.796875 L 175.371094 97.195312 C 175.238281 97.328125 175.105469 97.460938 174.96875 97.589844 C 174.839844 97.714844 174.707031 97.84375 174.574219 97.96875 C 173.507812 98.984375 172.453125 99.917969 171.375 100.859375 L 171.230469 100.984375 C 170.195312 101.890625 169.128906 102.828125 168.042969 103.871094 C 167.929688 103.980469 167.816406 104.089844 167.703125 104.203125 L 167.191406 104.714844 C 167.0625 104.847656 166.929688 104.984375 166.796875 105.125 L 166.34375 105.609375 C 166.203125 105.765625 166.0625 105.921875 165.917969 106.082031 C 165.773438 106.238281 165.636719 106.398438 165.496094 106.570312 C 165.355469 106.734375 165.214844 106.90625 165.070312 107.078125 C 164.933594 107.246094 164.792969 107.421875 164.65625 107.601562 C 164.574219 107.703125 164.480469 107.808594 164.355469 107.933594 C 164.25 108.039062 164.128906 108.144531 164 108.25 C 163.875 108.351562 163.734375 108.449219 163.589844 108.546875 C 163.515625 108.59375 163.441406 108.644531 163.363281 108.691406 C 163.292969 108.734375 163.214844 108.78125 163.136719 108.828125 C 162.828125 109.003906 162.488281 109.175781 162.121094 109.339844 C 162.03125 109.378906 161.941406 109.417969 161.847656 109.453125 C 161.757812 109.492188 161.667969 109.527344 161.574219 109.566406 C 161.390625 109.636719 161.203125 109.707031 161.015625 109.773438 L 160.882812 109.816406 C 159.78125 110.195312 158.738281 110.554688 157.699219 110.898438 C 157.167969 111.082031 156.640625 111.257812 156.121094 111.425781 L 154.601562 111.925781 C 154.105469 112.085938 153.621094 112.246094 153.148438 112.394531 C 152.679688 112.546875 152.222656 112.691406 151.78125 112.832031 C 151.34375 112.96875 150.921875 113.101562 150.515625 113.230469 L 150.496094 113.234375 C 150.085938 113.363281 149.691406 113.488281 149.3125 113.601562 C 148.289062 113.914062 147.375 114.191406 146.613281 114.417969 C 147.164062 114.332031 147.734375 114.234375 148.316406 114.128906 C 148.65625 114.066406 149 114 149.347656 113.933594 C 149.691406 113.867188 150.039062 113.796875 150.386719 113.722656 C 151.066406 113.582031 151.773438 113.429688 152.492188 113.265625 L 153.554688 113.015625 C 153.90625 112.933594 154.261719 112.847656 154.617188 112.761719 C 155.347656 112.582031 156.089844 112.390625 156.742188 112.226562 C 157.363281 112.066406 158.035156 111.886719 158.859375 111.667969 C 159.539062 111.484375 160.246094 111.292969 160.957031 111.097656 L 161.570312 110.925781 L 159.992188 112.515625 L 158.53125 114.074219 L 158.304688 114.328125 C 157.984375 114.683594 157.683594 115.023438 157.390625 115.367188 L 157.214844 115.566406 C 157.09375 115.710938 156.96875 115.855469 156.847656 116 L 155.824219 117.234375 L 154.863281 118.433594 L 154.394531 119.023438 L 153.636719 119.988281 C 153.589844 120.050781 153.542969 120.113281 153.496094 120.171875 L 152.796875 121.070312 C 152.738281 121.148438 152.679688 121.222656 152.621094 121.296875 C 152.476562 121.484375 152.335938 121.667969 152.191406 121.851562 L 151.757812 122.402344 C 151.484375 122.75 151.195312 123.117188 150.894531 123.484375 C 150.605469 123.847656 150.3125 124.207031 150.023438 124.550781 C 149.976562 124.601562 149.933594 124.65625 149.886719 124.710938 L 149.578125 125.074219 C 149.429688 125.253906 149.277344 125.429688 149.125 125.601562 C 147.808594 127.117188 146.476562 128.488281 145.050781 129.800781 C 144.738281 130.089844 144.453125 130.339844 144.1875 130.566406 C 144.027344 130.699219 143.863281 130.828125 143.726562 130.9375 C 143.566406 131.0625 143.40625 131.1875 143.25 131.300781 C 142.539062 131.8125 141.808594 132.230469 141.019531 132.570312 C 140.265625 132.894531 139.492188 133.222656 138.710938 133.550781 C 138.707031 133.554688 138.699219 133.554688 138.695312 133.558594 C 139.878906 133.117188 141.203125 132.628906 142.582031 132.105469 L 143.226562 131.863281 L 142.765625 132.375 C 137.929688 137.753906 134.085938 141.417969 130.671875 143.90625 C 129.503906 144.757812 128.289062 145.449219 127.003906 146.175781 C 125.308594 147.136719 123.554688 148.128906 121.730469 149.605469 C 120.890625 150.289062 116.699219 157.691406 113.058594 164.394531 C 113 164.496094 112.96875 164.554688 112.964844 164.558594 C 112.769531 164.898438 112.574219 165.238281 112.378906 165.578125 L 112.042969 166.164062 C 111.730469 166.699219 111.847656 167.386719 112.320312 167.792969 L 112.730469 168.148438 C 112.949219 168.417969 113.1875 168.660156 113.4375 168.867188 C 113.539062 168.949219 113.589844 169.082031 113.570312 169.210938 C 113.554688 169.339844 113.472656 169.445312 113.351562 169.496094 C 112.109375 170.035156 107.875 171.929688 105.59375 173.742188 C 105.519531 173.800781 105.433594 173.832031 105.34375 173.832031 "
       fill-opacity="1"
       fill-rule="nonzero"
       id="path16" />
  </g>
  <g
     fill="#008037"
     fill-opacity="1"
     id="g26"
     transform="translate(-9.8842197,5.3718582)">
    <g
       transform="translate(106.06148,183.33592)"
       id="g24">
      <g
         id="g22">
        <path
           d="M 13.824219,-5.277344 C 11.921875,-3.984375 10.054688,-2.65625 8.117188,-1.4375 7.109375,-0.789062 5.996094,-0.289062 4.917969,0.214844 4.597656,0.359375 4.203125,0.324219 3.878906,0.359375 3.699219,-0.71875 3.625,-0.71875 3.914062,-1.292969 4.382812,-2.335938 4.882812,-3.375 5.457031,-4.34375 6.105469,-5.457031 6.824219,-6.464844 7.46875,-7.539062 c 0.359375,-0.613282 0.683594,-1.257813 0.933594,-1.941407 0.324218,-0.898437 -0.070313,-1.472656 -1.039063,-1.578125 -0.503906,-0.03906 -1.007812,-0.07422 -1.472656,0.03516 -1.582031,0.429688 -3.160156,0.898438 -4.707031,1.363282 -0.214844,0.074218 -0.394532,0.289062 -0.609375,0.429687 2.046875,-0.214843 3.914062,-0.933593 6.070312,-1.003906 0.070313,0.898437 -0.289062,1.4375 -0.613281,2.011719 C 5.492188,-7.363281 4.882812,-6.5 4.308594,-5.636719 3.589844,-4.558594 2.835938,-3.449219 2.15625,-2.335938 1.867188,-1.902344 1.652344,-1.363281 1.472656,-0.863281 1.078125,0.46875 1.507812,1.292969 2.871094,1.542969 3.664062,1.6875 4.488281,1.617188 5.316406,1.507812 6.5,1.328125 7.613281,0.824219 8.617188,0.109375 c 1.4375,-0.972656 2.835937,-2.011719 4.203124,-3.089844 0.789063,-0.574219 1.472657,-1.328125 2.152344,-2.011719 0.144532,-0.179687 0.179688,-0.429687 0.289063,-0.644531 -0.683594,-0.289062 -1.042969,0.105469 -1.4375,0.359375 z m 0,0"
           id="path20" />
      </g>
    </g>
  </g>
  <g
     fill="#008037"
     fill-opacity="1"
     id="g34"
     transform="matrix(0.8997281,0,0,0.91070901,24.600177,13.997336)">
    <g
       transform="translate(121.57423,183.33592)"
       id="g32">
      <g
         id="g30">
        <path
           d="m 1.902344,-5.925781 c -0.144532,-1.972657 0.683594,-3.769531 0.253906,-5.566407 -0.648438,-0.25 -1.078125,-0.03516 -1.292969,0.46875 -0.179687,0.503907 -0.359375,1.039063 -0.46875,1.578126 -0.285156,1.148437 -0.574219,2.335937 -0.71875,3.519531 -0.179687,1.4375 -0.789062,2.476562 -1.972656,3.375 -3.664063,2.875 -6.679687,6.320312 -8.980469,10.378906 -0.644531,1.113281 -1.148437,2.335937 -1.613281,3.554687 -0.394531,1.003907 -0.609375,2.117188 -0.433594,3.230469 0.179688,1.332031 0.9375,2.046875 2.265625,2.121094 0.5,0.03516 1.003906,-0.07422 1.472656,-0.179687 0.859376,-0.214844 1.613282,-0.683594 2.222657,-1.328126 0.9375,-1.007812 1.871093,-2.011718 2.660156,-3.089843 1.253906,-1.722657 2.191406,-3.664063 3.050781,-5.601563 1.183594,-2.621094 2.046875,-5.3125 2.585938,-8.113281 0.25,-1.222656 0.753906,-2.121094 1.757812,-2.804687 C 4.417969,-5.636719 6.070312,-6.964844 8.042969,-8.4375 5.492188,-8.582031 3.914062,-6.824219 1.902344,-5.925781 Z m -3.804688,6.679687 c -1.042968,3.769532 -2.441406,7.363282 -4.417968,10.738282 -0.683594,1.183593 -1.542969,2.261718 -2.40625,3.339843 -0.503907,0.609375 -1.113282,1.183594 -2.117188,1.328125 -0.144531,-0.324218 -0.433594,-0.683594 -0.433594,-1.007812 0,-0.644532 0.03906,-1.328125 0.253906,-1.9375 0.394532,-1.113282 0.824219,-2.261719 1.4375,-3.304688 1.828126,-3.304687 4.09375,-6.320312 6.640626,-9.121094 0.324218,-0.320312 0.683593,-0.609374 1.292968,-1.148437 -0.144531,0.609375 -0.179687,0.863281 -0.25,1.113281 z m 3.160156,-14.9375 c 0.25,0.07031 0.609376,0 0.898438,-0.109375 0.179688,-0.03516 0.285156,-0.285156 0.394531,-0.5 0.359375,-0.648437 0.71875,-1.332031 1.148438,-2.15625 -1.472657,0.109375 -2.296875,0.71875 -2.730469,1.902344 -0.144531,0.359375 -0.070312,0.71875 0.289062,0.863281 z m 0,0"
           id="path28" />
      </g>
    </g>
  </g>
  <g
     fill="#008037"
     fill-opacity="1"
     id="g361"
     transform="translate(-0.36298713,5.3217668)">
    <g
       transform="translate(108.192,183.35457)"
       id="g359">
      <g
         id="g357">
        <path
           d="M 14.765625,-1.328125 C 14.191406,-1.507812 13.617188,-1.652344 13.003906,-1.722656 9.59375,-2.121094 6.144531,-1.976562 2.730469,-1.6875 c -0.46875,0.035156 -0.933594,0.285156 -1.367188,0.503906 -0.25,0.140625 -0.25,0.5 0,0.714844 0.179688,0.179688 0.433594,0.324219 0.683594,0.3984375 0.683594,0.140625 1.402344,0.2851565 2.085937,0.2851565 1.113282,0 2.191407,-0.1445315 3.269532,-0.214844 2.191406,-0.144531 4.34375,-0.289062 6.535156,-0.394531 0.46875,-0.035157 1.007812,0.035156 1.292969,-0.574219 -0.140625,-0.144531 -0.285157,-0.324219 -0.464844,-0.359375 z m 0,0"
           id="path355" />
      </g>
    </g>
  </g>
</svg>
